<?xml version="1.0" encoding="UTF-8" standalone="no"?>
<!-- Created with Inkscape (http://www.inkscape.org/) -->

<svg
   xmlns:dc="http://purl.org/dc/elements/1.1/"
   xmlns:cc="http://creativecommons.org/ns#"
   xmlns:rdf="http://www.w3.org/1999/02/22-rdf-syntax-ns#"
   xmlns:svg="http://www.w3.org/2000/svg"
   xmlns="http://www.w3.org/2000/svg"
   xmlns:sodipodi="http://sodipodi.sourceforge.net/DTD/sodipodi-0.dtd"
   xmlns:inkscape="http://www.inkscape.org/namespaces/inkscape"
   width="446.0162"
   height="284.01541"
   id="svg2"
   version="1.1"
   inkscape:version="0.48.4 r9939"
   sodipodi:docname="world.svg"
   inkscape:export-filename="C:\Users\katahiromz\Desktop\aa\VeySickProject\VeySicK\doc\images\world.png"
   inkscape:export-xdpi="90"
   inkscape:export-ydpi="90">
  <defs
     id="defs4">
    <marker
       inkscape:stockid="Arrow2Lend"
       orient="auto"
       refY="0"
       refX="0"
       id="Arrow2Lend"
       style="overflow:visible">
      <path
         id="path4194"
         style="fill-rule:evenodd;stroke-width:0.625;stroke-linejoin:round"
         d="M 8.7185878,4.0337352 -2.2072895,0.01601326 8.7185884,-4.0017078 c -1.7454984,2.3720609 -1.7354408,5.6174519 -6e-7,8.035443 z"
         transform="matrix(-1.1,0,0,-1.1,-1.1,0)"
         inkscape:connector-curvature="0" />
    </marker>
  </defs>
  <sodipodi:namedview
     id="base"
     pagecolor="#ffffff"
     bordercolor="#666666"
     borderopacity="1.0"
     inkscape:pageopacity="0.0"
     inkscape:pageshadow="2"
     inkscape:zoom="2.8"
     inkscape:cx="165.89593"
     inkscape:cy="88.730533"
     inkscape:document-units="px"
     inkscape:current-layer="layer1"
     showgrid="false"
     inkscape:snap-bbox="true"
     inkscape:bbox-paths="true"
     inkscape:bbox-nodes="true"
     inkscape:snap-bbox-edge-midpoints="true"
     inkscape:snap-bbox-midpoints="true"
     inkscape:object-paths="true"
     inkscape:snap-intersection-paths="true"
     inkscape:object-nodes="true"
     inkscape:snap-smooth-nodes="true"
     inkscape:snap-object-midpoints="true"
     inkscape:snap-midpoints="true"
     inkscape:snap-center="true"
     inkscape:snap-page="true"
     inkscape:snap-global="true"
     fit-margin-top="10"
     fit-margin-left="10"
     fit-margin-right="10"
     fit-margin-bottom="10"
     inkscape:window-width="1366"
     inkscape:window-height="716"
     inkscape:window-x="-8"
     inkscape:window-y="-8"
     inkscape:window-maximized="1" />
  <metadata
     id="metadata7">
    <rdf:RDF>
      <cc:Work
         rdf:about="">
        <dc:format>image/svg+xml</dc:format>
        <dc:type
           rdf:resource="http://purl.org/dc/dcmitype/StillImage" />
        <dc:title />
      </cc:Work>
    </rdf:RDF>
  </metadata>
  <g
     inkscape:label="レイヤー 1"
     inkscape:groupmode="layer"
     id="layer1"
     transform="translate(-170.82344,-429.90958)">
    <rect
       style="opacity:0.95999995;fill:#ffffff;fill-opacity:1;stroke:#000000;stroke-width:1.60000002;stroke-linejoin:round;stroke-miterlimit:4;stroke-opacity:1;stroke-dasharray:none"
       id="rect2985-0"
       width="207.75085"
       height="130.07718"
       x="395.46231"
       y="456.63824" />
    <rect
       style="opacity:0.95999995;fill:#ffffff;fill-opacity:1;stroke:#000000;stroke-width:1.33819413;stroke-linejoin:round;stroke-miterlimit:4;stroke-opacity:1;stroke-dasharray:none"
       id="rect2985"
       width="187.69038"
       height="166.05322"
       x="181.49254"
       y="440.57867" />
    <path
       style="opacity:0.95999995;fill:#ffffff;fill-opacity:1;stroke:#000000;stroke-width:1.60000002;stroke-linejoin:round;stroke-miterlimit:4;stroke-opacity:1;stroke-dasharray:none"
       d="m 200.99131,542.28057 0,39.875 152.675,0 0,-94.75 -81.075,0 c -0.0858,0.24645 -0.1365,0.50457 -0.225,0.75 -0.89046,2.46925 -1.91837,4.89141 -3.075,7.25 -1.15663,2.35858 -2.4425,4.66529 -3.85,6.9 -1.4075,2.2347 -2.93196,4.40238 -4.575,6.5 -1.64304,2.09761 -3.41174,4.12769 -5.275,6.075 -1.86326,1.94731 -3.83183,3.81621 -5.9,5.6 -2.06817,1.78379 -4.21725,3.46793 -6.475,5.075 -2.25775,1.60706 -4.61798,3.13288 -7.05,4.55 -2.43202,1.41712 -4.93404,2.73603 -7.525,3.95 -2.59096,1.21397 -5.26541,2.3274 -8,3.325 -2.73459,0.9976 -5.5371,1.88198 -8.4,2.65 -2.8629,0.76801 -5.79911,1.39977 -8.775,1.925 -0.81151,0.14322 -1.65582,0.20045 -2.475,0.325 z"
       id="path3831"
       inkscape:connector-curvature="0" />
    <path
       style="opacity:0.95999995;fill:#e6e6e6;fill-opacity:1;stroke:#000000;stroke-width:1.60000002;stroke-linejoin:round;stroke-miterlimit:4;stroke-opacity:1;stroke-dasharray:none"
       d="m 200.99131,542.28057 c 0.81918,-0.12455 1.66349,-0.18178 2.475,-0.325 2.97589,-0.52523 5.9121,-1.15699 8.775,-1.925 2.8629,-0.76802 5.66541,-1.6524 8.4,-2.65 2.73459,-0.9976 5.40904,-2.11103 8,-3.325 2.59096,-1.21397 5.09298,-2.53288 7.525,-3.95 2.43202,-1.41712 4.79225,-2.94294 7.05,-4.55 2.25775,-1.60707 4.40683,-3.29121 6.475,-5.075 2.06817,-1.78379 4.03674,-3.65269 5.9,-5.6 1.86326,-1.94731 3.63196,-3.97739 5.275,-6.075 1.64304,-2.09762 3.1675,-4.2653 4.575,-6.5 1.4075,-2.23471 2.69337,-4.54142 3.85,-6.9 1.15663,-2.35859 2.18454,-4.78075 3.075,-7.25 0.0885,-0.24543 0.13921,-0.50355 0.225,-0.75 l -71.6,0 0,54.875 z"
       id="rect2985-1-7-4"
       inkscape:connector-curvature="0" />
    <path
       style="fill:#ececec;stroke:#000000;stroke-width:1.60000002;stroke-linecap:butt;stroke-linejoin:miter;stroke-miterlimit:4;stroke-opacity:1;stroke-dasharray:none"
       d="m 318.14858,497.66866 -24.70893,33.97479 50.65331,-6.17724 z"
       id="path3835"
       inkscape:connector-curvature="0" />
    <path
       inkscape:connector-curvature="0"
       style="opacity:0.95999995;fill:#ffffff;fill-opacity:1;stroke:#000000;stroke-width:1.60000002;stroke-linejoin:round;stroke-miterlimit:4;stroke-opacity:1;stroke-dasharray:none"
       d="m 426.2772,515.37242 0,32.31792 123.74018,0 0,-76.79307 -65.70974,0 c -0.0695,0.19975 -0.11063,0.40895 -0.18236,0.60786 -0.7217,2.00128 -1.5548,3.96441 -2.49223,5.87599 -0.93743,1.91158 -1.9796,3.78114 -3.12035,5.59232 -1.14075,1.81118 -2.3763,3.56805 -3.70795,5.26813 -1.33166,1.70008 -2.76515,3.34541 -4.27529,4.92367 -1.51014,1.57826 -3.10563,3.09296 -4.78184,4.5387 -1.67621,1.44572 -3.418,2.81069 -5.24786,4.11319 -1.82987,1.30249 -3.74279,2.53913 -5.71389,3.68768 -1.9711,1.14855 -3.99894,2.21751 -6.09887,3.20141 -2.09992,0.98389 -4.26751,1.8863 -6.48385,2.69484 -2.21634,0.80854 -4.48771,1.52532 -6.80804,2.14778 -2.32032,0.62246 -4.70007,1.13449 -7.11198,1.56017 -0.65771,0.11608 -1.342,0.16246 -2.00593,0.26341 z"
       id="path3831-9" />
    <path
       inkscape:connector-curvature="0"
       style="opacity:0.95999995;fill:#e6e6e6;fill-opacity:1;stroke:#000000;stroke-width:1.60000002;stroke-linejoin:round;stroke-miterlimit:4;stroke-opacity:1;stroke-dasharray:none"
       d="m 426.2772,515.37242 c 0.66393,-0.10095 1.34822,-0.14733 2.00593,-0.26341 2.41191,-0.42568 4.79166,-0.93771 7.11198,-1.56017 2.32033,-0.62246 4.5917,-1.33924 6.80804,-2.14778 2.21634,-0.80854 4.38393,-1.71095 6.48385,-2.69484 2.09993,-0.9839 4.12777,-2.05286 6.09887,-3.20141 1.9711,-1.14855 3.88402,-2.38519 5.71389,-3.68768 1.82986,-1.3025 3.57165,-2.66747 5.24786,-4.11319 1.67621,-1.44574 3.2717,-2.96044 4.78184,-4.5387 1.51014,-1.57826 2.94363,-3.22359 4.27529,-4.92367 1.33165,-1.70008 2.5672,-3.45695 3.70795,-5.26813 1.14075,-1.81118 2.18292,-3.68074 3.12035,-5.59232 0.93743,-1.91158 1.77053,-3.87471 2.49223,-5.87599 0.0718,-0.19891 0.11282,-0.40811 0.18236,-0.60786 l -58.03044,0 0,44.47515 z"
       id="rect2985-1-7-4-4" />
    <path
       style="fill:#ececec;stroke:#000000;stroke-width:1.60000002;stroke-linecap:butt;stroke-linejoin:miter;stroke-miterlimit:4;stroke-opacity:1;stroke-dasharray:none"
       d="m 521.23093,479.21532 -20.02611,27.53591 41.05355,-5.00653 z"
       id="path3835-8"
       inkscape:connector-curvature="0" />
    <path
       style="fill:none;stroke:#000000;stroke-width:0.63999999;stroke-linecap:butt;stroke-linejoin:miter;stroke-miterlimit:4;stroke-opacity:1;stroke-dasharray:2.56, 0.64;stroke-dashoffset:0"
       d="M 200.99131,582.15557 426.14435,547.82319"
       id="path3863"
       inkscape:connector-curvature="0" />
    <path
       style="fill:none;stroke:#000000;stroke-width:0.63999999;stroke-linecap:butt;stroke-linejoin:miter;stroke-miterlimit:4;stroke-opacity:1;stroke-dasharray:2.56, 0.64;stroke-dashoffset:0"
       d="M 353.66631,582.15557 550.01738,547.69034"
       id="path3865"
       inkscape:connector-curvature="0" />
    <path
       style="fill:none;stroke:#000000;stroke-width:0.63999999;stroke-linecap:butt;stroke-linejoin:miter;stroke-miterlimit:4;stroke-opacity:1;stroke-dasharray:2.56, 0.64;stroke-dashoffset:0"
       d="M 200.99131,487.40557 426.2772,470.89727"
       id="path3867"
       inkscape:connector-curvature="0" />
    <path
       style="fill:none;stroke:#000000;stroke-width:0.63999999;stroke-linecap:butt;stroke-linejoin:miter;stroke-miterlimit:4;stroke-opacity:1;stroke-dasharray:2.56, 0.64;stroke-dashoffset:0"
       d="m 353.66631,487.40557 196.35107,-16.5083"
       id="path3869"
       inkscape:connector-curvature="0" />
    <text
       xml:space="preserve"
       style="font-size:32px;font-style:normal;font-weight:normal;line-height:125%;letter-spacing:0px;word-spacing:0px;fill:#000000;fill-opacity:1;stroke:none;font-family:Sans"
       x="185.21156"
       y="600.65344"
       id="text3871"
       sodipodi:linespacing="125%"><tspan
         sodipodi:role="line"
         id="tspan3873"
         x="185.21156"
         y="600.65344"
         style="font-size:11.19999981px;font-style:normal;font-variant:normal;font-weight:normal;font-stretch:normal;font-family:Ume Gothic;-inkscape-font-specification:Ume Gothic">ワールド座標系</tspan></text>
    <text
       xml:space="preserve"
       style="font-size:32px;font-style:normal;font-weight:normal;line-height:125%;letter-spacing:0px;word-spacing:0px;fill:#000000;fill-opacity:1;stroke:none;font-family:Sans"
       x="205.82069"
       y="565.83679"
       id="text3871-8"
       sodipodi:linespacing="125%"><tspan
         sodipodi:role="line"
         id="tspan3873-2"
         x="205.82069"
         y="565.83679"
         style="font-size:11.19999981px;font-style:normal;font-variant:normal;font-weight:normal;font-stretch:normal;font-family:Ume Gothic;-inkscape-font-specification:Ume Gothic">論理ウィンドウ</tspan></text>
    <text
       xml:space="preserve"
       style="font-size:32px;font-style:normal;font-weight:normal;line-height:125%;letter-spacing:0px;word-spacing:0px;fill:#000000;fill-opacity:1;stroke:none;font-family:Sans"
       x="192.71072"
       y="484.2002"
       id="text3871-8-4"
       sodipodi:linespacing="125%"><tspan
         sodipodi:role="line"
         id="tspan3873-2-5"
         x="192.71072"
         y="484.2002"
         style="font-size:11.19999981px;font-style:normal;font-variant:normal;font-weight:normal;font-stretch:normal;font-family:Ume Gothic;-inkscape-font-specification:Ume Gothic">(-1OO,-1OO)</tspan></text>
    <text
       xml:space="preserve"
       style="font-size:32px;font-style:normal;font-weight:normal;line-height:125%;letter-spacing:0px;word-spacing:0px;fill:#000000;fill-opacity:1;stroke:none;font-family:Sans"
       x="304.82977"
       y="592.04535"
       id="text3871-8-4-7"
       sodipodi:linespacing="125%"><tspan
         sodipodi:role="line"
         id="tspan3873-2-5-11"
         x="304.82977"
         y="592.04535"
         style="font-size:11.19999981px;font-style:normal;font-variant:normal;font-weight:normal;font-stretch:normal;font-family:Ume Gothic;-inkscape-font-specification:Ume Gothic">(25O,1OO)</tspan></text>
    <text
       xml:space="preserve"
       style="font-size:32px;font-style:normal;font-weight:normal;line-height:125%;letter-spacing:0px;word-spacing:0px;fill:#000000;fill-opacity:1;stroke:none;font-family:Sans"
       x="428.19708"
       y="544.01746"
       id="text3871-8-5"
       sodipodi:linespacing="125%"><tspan
         sodipodi:role="line"
         x="428.19708"
         y="544.01746"
         style="font-size:11.19999981px;font-style:normal;font-variant:normal;font-weight:normal;font-stretch:normal;font-family:Ume Gothic;-inkscape-font-specification:Ume Gothic"
         id="tspan4005">(物理ウィンドウ)</tspan></text>
    <text
       xml:space="preserve"
       style="font-size:32px;font-style:normal;font-weight:normal;line-height:125%;letter-spacing:0px;word-spacing:0px;fill:#000000;fill-opacity:1;stroke:none;font-family:Sans"
       x="416.54492"
       y="580.78699"
       id="text3871-8-5-7"
       sodipodi:linespacing="125%"><tspan
         sodipodi:role="line"
         id="tspan3873-2-2-6"
         x="416.54492"
         y="580.78699"
         style="font-size:11.19999981px;font-style:normal;font-variant:normal;font-weight:normal;font-stretch:normal;font-family:Ume Gothic;-inkscape-font-specification:Ume Gothic">オリジナルスクリーン座標系</tspan></text>
    <text
       xml:space="preserve"
       style="font-size:32px;font-style:normal;font-weight:normal;line-height:125%;letter-spacing:0px;word-spacing:0px;fill:#000000;fill-opacity:1;stroke:none;font-family:Sans"
       x="403.51813"
       y="468.41898"
       id="text3871-8-4-1"
       sodipodi:linespacing="125%"><tspan
         sodipodi:role="line"
         id="tspan3873-2-5-4"
         x="403.51813"
         y="468.41898"
         style="font-size:11.19999981px;font-style:normal;font-variant:normal;font-weight:normal;font-stretch:normal;font-family:Ume Gothic;-inkscape-font-specification:Ume Gothic">(8O,2O)</tspan></text>
    <text
       xml:space="preserve"
       style="font-size:32px;font-style:normal;font-weight:normal;line-height:125%;letter-spacing:0px;word-spacing:0px;fill:#000000;fill-opacity:1;stroke:none;font-family:Sans"
       x="540.84021"
       y="558.27637"
       id="text3871-8-4-1-2"
       sodipodi:linespacing="125%"><tspan
         sodipodi:role="line"
         id="tspan3873-2-5-4-3"
         x="540.84021"
         y="558.27637"
         style="font-size:11.19999981px;font-style:normal;font-variant:normal;font-weight:normal;font-stretch:normal;font-family:Ume Gothic;-inkscape-font-specification:Ume Gothic">(58O,3OO)</tspan></text>
    <text
       xml:space="preserve"
       style="font-size:32px;font-style:normal;font-weight:normal;line-height:125%;letter-spacing:0px;word-spacing:0px;fill:#000000;fill-opacity:1;stroke:none;font-family:Sans"
       x="379.95264"
       y="453.06467"
       id="text3871-8-4-1-22"
       sodipodi:linespacing="125%"><tspan
         sodipodi:role="line"
         id="tspan3873-2-5-4-1"
         x="379.95264"
         y="453.06467"
         style="font-size:11.19999981px;font-style:normal;font-variant:normal;font-weight:normal;font-stretch:normal;font-family:Ume Gothic;-inkscape-font-specification:Ume Gothic">(O,O)</tspan></text>
    <text
       xml:space="preserve"
       style="font-size:32px;font-style:normal;font-weight:normal;line-height:125%;letter-spacing:0px;word-spacing:0px;fill:#000000;fill-opacity:1;stroke:none;font-family:Sans"
       x="558.01465"
       y="598.98083"
       id="text3871-8-4-1-22-6"
       sodipodi:linespacing="125%"><tspan
         sodipodi:role="line"
         id="tspan3873-2-5-4-1-8"
         x="558.01465"
         y="598.98083"
         style="font-size:11.19999981px;font-style:normal;font-variant:normal;font-weight:normal;font-stretch:normal;font-family:Ume Gothic;-inkscape-font-specification:Ume Gothic">(639,399)</tspan></text>
    <path
       inkscape:connector-curvature="0"
       style="opacity:0.95999995;fill:#ffffff;fill-opacity:1;stroke:#000000;stroke-width:1.60000002;stroke-linejoin:round;stroke-miterlimit:4;stroke-opacity:1;stroke-dasharray:none"
       d="m 428.23033,658.02817 0,32.31792 123.74019,0 0,-76.79307 -65.70975,0 c -0.0695,0.19974 -0.11062,0.40895 -0.18236,0.60785 -0.72169,2.00128 -1.5548,3.96441 -2.49222,5.87599 -0.93743,1.91159 -1.97961,3.78114 -3.12035,5.59232 -1.14075,1.81119 -2.37631,3.56805 -3.70795,5.26813 -1.33166,1.70008 -2.76516,3.34541 -4.27529,4.92367 -1.51015,1.57826 -3.10563,3.09296 -4.78184,4.5387 -1.67621,1.44573 -3.418,2.8107 -5.24787,4.11319 -1.82987,1.3025 -3.74278,2.53914 -5.71388,3.68768 -1.97111,1.14855 -3.99895,2.21751 -6.09888,3.20141 -2.09992,0.9839 -4.26751,1.8863 -6.48384,2.69485 -2.21634,0.80853 -4.48772,1.52531 -6.80804,2.14777 -2.32032,0.62246 -4.70008,1.13449 -7.11198,1.56017 -0.65771,0.11608 -1.34201,0.16247 -2.00594,0.26342 z"
       id="path3831-9-5" />
    <path
       inkscape:connector-curvature="0"
       style="opacity:0.95999995;fill:#e6e6e6;fill-opacity:1;stroke:#000000;stroke-width:1.60000002;stroke-linejoin:round;stroke-miterlimit:4;stroke-opacity:1;stroke-dasharray:none"
       d="m 428.23033,658.02817 c 0.66393,-0.10095 1.34823,-0.14734 2.00594,-0.26342 2.4119,-0.42568 4.79166,-0.93771 7.11198,-1.56017 2.32032,-0.62246 4.5917,-1.33924 6.80804,-2.14777 2.21633,-0.80855 4.38392,-1.71095 6.48384,-2.69485 2.09993,-0.9839 4.12777,-2.05286 6.09888,-3.20141 1.9711,-1.14854 3.88401,-2.38518 5.71388,-3.68768 1.82987,-1.30249 3.57166,-2.66746 5.24787,-4.11319 1.67621,-1.44574 3.27169,-2.96044 4.78184,-4.5387 1.51013,-1.57826 2.94363,-3.22359 4.27529,-4.92367 1.33164,-1.70008 2.5672,-3.45694 3.70795,-5.26813 1.14074,-1.81118 2.18292,-3.68073 3.12035,-5.59232 0.93742,-1.91158 1.77053,-3.87471 2.49222,-5.87599 0.0718,-0.1989 0.11283,-0.40811 0.18236,-0.60785 l -58.03044,0 0,44.47515 z"
       id="rect2985-1-7-4-4-7" />
    <path
       style="fill:#ececec;stroke:#000000;stroke-width:1.60000002;stroke-linecap:butt;stroke-linejoin:miter;stroke-miterlimit:4;stroke-opacity:1;stroke-dasharray:none"
       d="m 523.18407,621.87106 -20.02611,27.53592 41.05354,-5.00654 z"
       id="path3835-8-6"
       inkscape:connector-curvature="0" />
    <text
       xml:space="preserve"
       style="font-size:32px;font-style:normal;font-weight:normal;line-height:125%;letter-spacing:0px;word-spacing:0px;fill:#000000;fill-opacity:1;stroke:none;font-family:Sans"
       x="444.5502"
       y="667.47321"
       id="text3871-8-5-1"
       sodipodi:linespacing="125%"><tspan
         sodipodi:role="line"
         x="444.5502"
         y="667.47321"
         style="font-size:11.19999981px;font-style:normal;font-variant:normal;font-weight:normal;font-stretch:normal;font-family:Ume Gothic;-inkscape-font-specification:Ume Gothic"
         id="tspan4005-8">スクリーン座標系</tspan></text>
    <text
       xml:space="preserve"
       style="font-size:32px;font-style:normal;font-weight:normal;line-height:125%;letter-spacing:0px;word-spacing:0px;fill:#000000;fill-opacity:1;stroke:none;font-family:Sans"
       x="399.06787"
       y="620.79657"
       id="text3871-8-4-1-22-9"
       sodipodi:linespacing="125%"><tspan
         sodipodi:role="line"
         id="tspan3873-2-5-4-1-2"
         x="399.06787"
         y="620.79657"
         style="font-size:11.19999981px;font-style:normal;font-variant:normal;font-weight:normal;font-stretch:normal;font-family:Ume Gothic;-inkscape-font-specification:Ume Gothic">(O,O)</tspan></text>
    <text
       xml:space="preserve"
       style="font-size:32px;font-style:normal;font-weight:normal;line-height:125%;letter-spacing:0px;word-spacing:0px;fill:#000000;fill-opacity:1;stroke:none;font-family:Sans"
       x="502.88467"
       y="702.34998"
       id="text3871-8-4-1-2-7"
       sodipodi:linespacing="125%"><tspan
         sodipodi:role="line"
         id="tspan3873-2-5-4-3-9"
         x="502.88467"
         y="702.34998"
         style="font-size:11.19999981px;font-style:normal;font-variant:normal;font-weight:normal;font-stretch:normal;font-family:Ume Gothic;-inkscape-font-specification:Ume Gothic">(5OO,28O)</tspan></text>
    <path
       style="fill:none;stroke:#000000;stroke-width:0.63999999;stroke-linecap:butt;stroke-linejoin:miter;stroke-miterlimit:4;stroke-opacity:1;stroke-dasharray:1.92, 0.64;stroke-dashoffset:0;marker-end:url(#Arrow2Lend)"
       d="m 426.2772,547.69034 1.95313,65.86268"
       id="path4165"
       inkscape:connector-curvature="0" />
    <path
       style="fill:none;stroke:#000000;stroke-width:0.63999999;stroke-linecap:butt;stroke-linejoin:miter;stroke-miterlimit:4;stroke-opacity:1;stroke-dasharray:1.92, 0.64;stroke-dashoffset:0;marker-end:url(#Arrow2Lend)"
       d="m 550.01738,547.69034 1.95314,65.86268"
       id="path4167"
       inkscape:connector-curvature="0" />
    <text
       xml:space="preserve"
       style="font-size:32px;font-style:normal;font-weight:normal;line-height:125%;letter-spacing:0px;word-spacing:0px;fill:#000000;fill-opacity:1;stroke:none;font-family:Sans"
       x="427.90738"
       y="531.08752"
       id="text3871-8-5-5"
       sodipodi:linespacing="125%"><tspan
         sodipodi:role="line"
         x="427.90738"
         y="531.08752"
         style="font-size:11.19999981px;font-style:normal;font-variant:normal;font-weight:normal;font-stretch:normal;font-family:Ume Gothic;-inkscape-font-specification:Ume Gothic"
         id="tspan4005-4">ビューポート</tspan></text>
    <path
       style="fill:none;stroke:#000000;stroke-width:1;stroke-linecap:butt;stroke-linejoin:miter;stroke-miterlimit:4;stroke-opacity:1;stroke-dasharray:2, 1;stroke-dashoffset:0"
       d="m 101.7791,57.50005 c 0,0 2.50661,-6.963513 3.2209,-12.677798 0.71429,-5.714286 1.07143,-6.785715 1.07143,-6.785715"
       id="path3029"
       inkscape:connector-curvature="0"
       transform="translate(170.81221,429.90552)" />
    <path
       style="fill:none;stroke:#000000;stroke-width:1;stroke-linecap:butt;stroke-linejoin:miter;stroke-miterlimit:4;stroke-opacity:1;stroke-dasharray:2, 1;stroke-dashoffset:0"
       d="m 30.1791,112.37505 c 0,0 -9.464814,1.37577 -12.321957,1.01863 C 15,113.03654 15,113.03654 15,113.03654"
       id="path3033"
       inkscape:connector-curvature="0"
       transform="translate(170.81221,429.90552)" />
  </g>
</svg>
