#define pc98_pank_width 128
#define pc98_pank_height 256
static unsigned char pc98_pank_bits[] = {
   0x00, 0x00, 0x00, 0x00, 0x00, 0x00, 0x00, 0x00, 0x00, 0x00, 0x00, 0x00,
   0x00, 0x00, 0x00, 0x00, 0x00, 0x00, 0x00, 0x00, 0x00, 0x00, 0x00, 0x00,
   0x00, 0x00, 0x00, 0x00, 0x00, 0x00, 0x00, 0x00, 0x00, 0x00, 0x00, 0x00,
   0x00, 0x00, 0x00, 0x00, 0x00, 0x00, 0x00, 0x00, 0x00, 0x00, 0x00, 0x00,
   0x00, 0x00, 0x00, 0x00, 0x00, 0x00, 0x00, 0x00, 0x00, 0x00, 0x00, 0x00,
   0x00, 0x00, 0x00, 0x00, 0x00, 0x00, 0x00, 0x00, 0x00, 0x00, 0x00, 0x00,
   0x00, 0x00, 0x00, 0x00, 0x00, 0x00, 0x00, 0x00, 0x00, 0x00, 0x00, 0x00,
   0x00, 0x00, 0x00, 0x00, 0x00, 0x00, 0x00, 0x00, 0x00, 0x00, 0x00, 0x00,
   0x00, 0x00, 0x00, 0x00, 0x00, 0x00, 0x00, 0x00, 0x00, 0x00, 0x00, 0x00,
   0x00, 0x00, 0x00, 0x00, 0x00, 0x00, 0x00, 0x00, 0x00, 0x00, 0x00, 0x00,
   0x00, 0x00, 0x00, 0x00, 0x00, 0x00, 0x00, 0x00, 0x00, 0x00, 0x00, 0x00,
   0x00, 0x00, 0x00, 0x00, 0x00, 0x00, 0x00, 0x00, 0x00, 0x00, 0x00, 0x00,
   0x00, 0x00, 0x00, 0x00, 0x00, 0x00, 0x00, 0x00, 0x00, 0x00, 0x00, 0x00,
   0x00, 0x00, 0x00, 0x00, 0x00, 0x00, 0x00, 0x00, 0x00, 0x00, 0x00, 0x00,
   0x00, 0x00, 0x00, 0x00, 0x00, 0x00, 0x00, 0x00, 0x00, 0x00, 0x00, 0x00,
   0x00, 0x00, 0x00, 0x00, 0x00, 0x00, 0x00, 0x00, 0x00, 0x00, 0x00, 0x00,
   0x00, 0x00, 0x00, 0x00, 0x00, 0x00, 0x00, 0x00, 0x00, 0x00, 0x00, 0x00,
   0x00, 0x00, 0x00, 0x00, 0x00, 0x00, 0x00, 0x00, 0x00, 0x00, 0x00, 0x00,
   0x00, 0x00, 0x00, 0x00, 0x00, 0x00, 0x00, 0x00, 0x00, 0x00, 0x00, 0x00,
   0x00, 0x00, 0x00, 0x00, 0x00, 0x00, 0x00, 0x00, 0x00, 0x00, 0x00, 0x00,
   0x00, 0x00, 0x00, 0x00, 0x00, 0x00, 0x00, 0x00, 0x00, 0x00, 0x00, 0x00,
   0x00, 0x00, 0x00, 0x00, 0x00, 0x00, 0x00, 0x00, 0x00, 0x00, 0x00, 0x00,
   0x00, 0x00, 0x00, 0x00, 0x00, 0x00, 0x00, 0x00, 0x00, 0x00, 0x00, 0x00,
   0x00, 0x00, 0x00, 0x00, 0x00, 0x00, 0x00, 0x00, 0x00, 0x00, 0x00, 0x00,
   0x00, 0x00, 0x00, 0x00, 0x00, 0x00, 0x00, 0x00, 0x00, 0x00, 0x00, 0x00,
   0x00, 0x00, 0x00, 0x00, 0x00, 0x00, 0x00, 0x00, 0x00, 0x00, 0x00, 0x00,
   0x00, 0x00, 0x00, 0x00, 0x00, 0x00, 0x00, 0x00, 0x00, 0x00, 0x00, 0x00,
   0x00, 0x00, 0x00, 0x00, 0x00, 0x00, 0x00, 0x00, 0x00, 0x00, 0x00, 0x00,
   0x00, 0x00, 0x00, 0x00, 0x00, 0x00, 0x00, 0x00, 0x00, 0x00, 0x00, 0x00,
   0x00, 0x00, 0x00, 0x00, 0x00, 0x00, 0x00, 0x00, 0x00, 0x00, 0x00, 0x00,
   0x00, 0x00, 0x00, 0x00, 0x00, 0x00, 0x00, 0x00, 0x00, 0x00, 0x00, 0x00,
   0x00, 0x00, 0x00, 0x00, 0x00, 0x00, 0x00, 0x00, 0x00, 0x00, 0x00, 0x00,
   0x00, 0x00, 0x00, 0x00, 0x00, 0x00, 0x00, 0x00, 0x00, 0x00, 0x00, 0x00,
   0x00, 0x00, 0x00, 0x00, 0x00, 0x00, 0x00, 0x00, 0x00, 0x00, 0x00, 0x00,
   0x00, 0x00, 0x00, 0x00, 0x00, 0x00, 0x00, 0x00, 0x00, 0x00, 0x00, 0x00,
   0x00, 0x00, 0x00, 0x00, 0x00, 0x00, 0x00, 0x00, 0x00, 0x00, 0x00, 0x00,
   0x00, 0x00, 0x00, 0x00, 0x00, 0x00, 0x00, 0x00, 0x00, 0x00, 0x00, 0x00,
   0x00, 0x00, 0x00, 0x00, 0x00, 0x00, 0x00, 0x00, 0x00, 0x00, 0x00, 0x00,
   0x00, 0x00, 0x00, 0x00, 0x00, 0x00, 0x00, 0x00, 0x00, 0x00, 0x00, 0x00,
   0x00, 0x00, 0x00, 0x00, 0x00, 0x00, 0x00, 0x00, 0x00, 0x00, 0x00, 0x00,
   0x00, 0x00, 0x00, 0x00, 0x00, 0x00, 0x00, 0x00, 0x00, 0x00, 0x00, 0x00,
   0x00, 0x00, 0x00, 0x00, 0x00, 0x00, 0x00, 0x00, 0x00, 0x00, 0x00, 0x00,
   0x00, 0x00, 0x00, 0x00, 0x00, 0x00, 0x00, 0x00, 0x00, 0x00, 0x00, 0x00,
   0x00, 0x00, 0x00, 0x00, 0x20, 0x04, 0x00, 0x00, 0x00, 0x00, 0x00, 0x00,
   0x00, 0x08, 0x36, 0x24, 0x10, 0x44, 0x1c, 0x06, 0x10, 0x08, 0x00, 0x00,
   0x00, 0x00, 0x00, 0x40, 0x00, 0x08, 0x36, 0x24, 0x38, 0x2a, 0x22, 0x06,
   0x10, 0x08, 0x10, 0x00, 0x00, 0x00, 0x00, 0x20, 0x00, 0x08, 0x24, 0x24,
   0x54, 0x2a, 0x22, 0x04, 0x08, 0x10, 0x10, 0x10, 0x00, 0x00, 0x00, 0x20,
   0x00, 0x08, 0x12, 0x64, 0x92, 0x24, 0x22, 0x02, 0x08, 0x10, 0x92, 0x10,
   0x00, 0x00, 0x00, 0x20, 0x00, 0x08, 0x00, 0x3c, 0x12, 0x10, 0x22, 0x00,
   0x04, 0x20, 0x92, 0x10, 0x00, 0x00, 0x00, 0x10, 0x00, 0x08, 0x00, 0x26,
   0x14, 0x10, 0x1a, 0x00, 0x04, 0x20, 0x54, 0x10, 0x00, 0x00, 0x00, 0x10,
   0x00, 0x08, 0x00, 0x24, 0x38, 0x10, 0x04, 0x00, 0x04, 0x20, 0x38, 0xfe,
   0x00, 0x7e, 0x00, 0x10, 0x00, 0x08, 0x00, 0x24, 0x50, 0x08, 0x04, 0x00,
   0x04, 0x20, 0x10, 0x10, 0x00, 0x00, 0x00, 0x08, 0x00, 0x08, 0x00, 0x64,
   0x90, 0x08, 0x4a, 0x00, 0x04, 0x20, 0x38, 0x10, 0x00, 0x00, 0x00, 0x08,
   0x00, 0x08, 0x00, 0x3c, 0x90, 0x08, 0x4a, 0x00, 0x04, 0x20, 0x54, 0x10,
   0x00, 0x00, 0x00, 0x08, 0x00, 0x00, 0x00, 0x26, 0x92, 0x24, 0x52, 0x00,
   0x08, 0x10, 0x92, 0x10, 0x00, 0x00, 0x00, 0x04, 0x00, 0x00, 0x00, 0x24,
   0x54, 0x54, 0x52, 0x00, 0x08, 0x10, 0x92, 0x10, 0x06, 0x00, 0x00, 0x04,
   0x00, 0x18, 0x00, 0x24, 0x38, 0x54, 0x22, 0x00, 0x10, 0x08, 0x10, 0x00,
   0x06, 0x00, 0x06, 0x04, 0x00, 0x18, 0x00, 0x24, 0x10, 0x22, 0x5c, 0x00,
   0x10, 0x08, 0x10, 0x00, 0x04, 0x00, 0x06, 0x02, 0x00, 0x00, 0x00, 0x00,
   0x00, 0x00, 0x00, 0x00, 0x20, 0x04, 0x00, 0x00, 0x02, 0x00, 0x00, 0x00,
   0x00, 0x00, 0x00, 0x00, 0x00, 0x00, 0x00, 0x00, 0x00, 0x00, 0x00, 0x00,
   0x00, 0x00, 0x00, 0x00, 0x3c, 0x10, 0x18, 0x18, 0x20, 0x7e, 0x18, 0x7e,
   0x18, 0x18, 0x00, 0x00, 0x00, 0x00, 0x00, 0x18, 0x42, 0x18, 0x24, 0x24,
   0x30, 0x02, 0x24, 0x42, 0x24, 0x24, 0x00, 0x00, 0x40, 0x00, 0x02, 0x24,
   0x42, 0x14, 0x42, 0x42, 0x30, 0x02, 0x42, 0x42, 0x42, 0x42, 0x00, 0x00,
   0x20, 0x00, 0x04, 0x42, 0x42, 0x10, 0x42, 0x42, 0x28, 0x02, 0x42, 0x42,
   0x42, 0x42, 0x18, 0x18, 0x10, 0x00, 0x08, 0x42, 0x42, 0x10, 0x42, 0x40,
   0x28, 0x1a, 0x02, 0x20, 0x42, 0x42, 0x18, 0x18, 0x08, 0x00, 0x10, 0x42,
   0x42, 0x10, 0x40, 0x20, 0x28, 0x26, 0x1a, 0x20, 0x24, 0x42, 0x00, 0x00,
   0x04, 0x7e, 0x20, 0x20, 0x42, 0x10, 0x20, 0x18, 0x24, 0x42, 0x26, 0x10,
   0x18, 0x42, 0x00, 0x00, 0x02, 0x00, 0x40, 0x10, 0x42, 0x10, 0x10, 0x20,
   0x24, 0x40, 0x42, 0x10, 0x24, 0x64, 0x00, 0x00, 0x02, 0x00, 0x40, 0x08,
   0x42, 0x10, 0x08, 0x40, 0x22, 0x40, 0x42, 0x10, 0x42, 0x58, 0x00, 0x00,
   0x04, 0x7e, 0x20, 0x08, 0x42, 0x10, 0x04, 0x42, 0x22, 0x40, 0x42, 0x10,
   0x42, 0x40, 0x00, 0x00, 0x08, 0x00, 0x10, 0x08, 0x42, 0x10, 0x04, 0x42,
   0x7e, 0x42, 0x42, 0x10, 0x42, 0x42, 0x00, 0x00, 0x10, 0x00, 0x08, 0x00,
   0x42, 0x10, 0x02, 0x42, 0x20, 0x42, 0x42, 0x10, 0x42, 0x42, 0x18, 0x18,
   0x20, 0x00, 0x04, 0x00, 0x42, 0x10, 0x02, 0x24, 0x20, 0x24, 0x24, 0x10,
   0x24, 0x24, 0x18, 0x18, 0x40, 0x00, 0x02, 0x18, 0x3c, 0x38, 0x7e, 0x18,
   0x20, 0x18, 0x18, 0x10, 0x18, 0x18, 0x00, 0x10, 0x00, 0x00, 0x00, 0x18,
   0x00, 0x00, 0x00, 0x00, 0x00, 0x00, 0x00, 0x00, 0x00, 0x00, 0x00, 0x08,
   0x00, 0x00, 0x00, 0x00, 0x00, 0x00, 0x00, 0x00, 0x00, 0x00, 0x00, 0x00,
   0x00, 0x00, 0x00, 0x00, 0x00, 0x00, 0x00, 0x00, 0x38, 0x18, 0x1e, 0x18,
   0x1e, 0x7e, 0x7e, 0x18, 0x42, 0x38, 0x40, 0x42, 0x02, 0x82, 0x42, 0x18,
   0x44, 0x18, 0x22, 0x24, 0x22, 0x02, 0x02, 0x24, 0x42, 0x10, 0x40, 0x22,
   0x02, 0xc6, 0x46, 0x24, 0x82, 0x24, 0x42, 0x42, 0x42, 0x02, 0x02, 0x42,
   0x42, 0x10, 0x40, 0x22, 0x02, 0xc6, 0x46, 0x42, 0x92, 0x24, 0x42, 0x42,
   0x42, 0x02, 0x02, 0x02, 0x42, 0x10, 0x40, 0x12, 0x02, 0xaa, 0x4a, 0x42,
   0xaa, 0x24, 0x42, 0x02, 0x42, 0x02, 0x02, 0x02, 0x42, 0x10, 0x40, 0x12,
   0x02, 0xaa, 0x4a, 0x42, 0xaa, 0x24, 0x22, 0x02, 0x42, 0x02, 0x02, 0x02,
   0x42, 0x10, 0x40, 0x0a, 0x02, 0x92, 0x4a, 0x42, 0xaa, 0x24, 0x1e, 0x02,
   0x42, 0x3e, 0x3e, 0x72, 0x7e, 0x10, 0x40, 0x06, 0x02, 0x92, 0x4a, 0x42,
   0xaa, 0x3c, 0x22, 0x02, 0x42, 0x02, 0x02, 0x42, 0x42, 0x10, 0x40, 0x0a,
   0x02, 0x82, 0x52, 0x42, 0xaa, 0x42, 0x42, 0x42, 0x42, 0x02, 0x02, 0x42,
   0x42, 0x10, 0x40, 0x12, 0x02, 0x82, 0x52, 0x42, 0xaa, 0x42, 0x42, 0x42,
   0x42, 0x02, 0x02, 0x42, 0x42, 0x10, 0x42, 0x12, 0x02, 0x82, 0x52, 0x42,
   0x52, 0x42, 0x42, 0x42, 0x42, 0x02, 0x02, 0x42, 0x42, 0x10, 0x42, 0x22,
   0x02, 0x82, 0x62, 0x42, 0x02, 0x42, 0x22, 0x24, 0x22, 0x02, 0x02, 0x64,
   0x42, 0x10, 0x24, 0x22, 0x02, 0x82, 0x62, 0x24, 0x84, 0x42, 0x1e, 0x18,
   0x1e, 0x7e, 0x02, 0x58, 0x42, 0x38, 0x18, 0x42, 0x7e, 0x82, 0x42, 0x18,
   0x78, 0x00, 0x00, 0x00, 0x00, 0x00, 0x00, 0x00, 0x00, 0x00, 0x00, 0x00,
   0x00, 0x00, 0x00, 0x00, 0x00, 0x00, 0x00, 0x00, 0x00, 0x00, 0x00, 0x00,
   0x00, 0x00, 0x00, 0x00, 0x00, 0x00, 0x00, 0x00, 0x00, 0x00, 0x00, 0x00,
   0x00, 0x00, 0x00, 0x00, 0x00, 0x00, 0x00, 0x70, 0x00, 0x1c, 0x18, 0x00,
   0x1e, 0x18, 0x1e, 0x18, 0xfe, 0x42, 0x82, 0x82, 0x42, 0x82, 0x7e, 0x10,
   0x82, 0x10, 0x24, 0x00, 0x22, 0x24, 0x22, 0x24, 0x10, 0x42, 0x82, 0x82,
   0x42, 0x82, 0x40, 0x10, 0x82, 0x10, 0x42, 0x00, 0x42, 0x42, 0x42, 0x42,
   0x10, 0x42, 0x82, 0x82, 0x42, 0x82, 0x20, 0x10, 0x44, 0x10, 0x00, 0x00,
   0x42, 0x42, 0x42, 0x02, 0x10, 0x42, 0x82, 0x82, 0x24, 0x44, 0x20, 0x10,
   0x44, 0x10, 0x00, 0x00, 0x42, 0x42, 0x42, 0x02, 0x10, 0x42, 0x44, 0x92,
   0x24, 0x44, 0x10, 0x10, 0x28, 0x10, 0x00, 0x00, 0x22, 0x42, 0x22, 0x04,
   0x10, 0x42, 0x44, 0x92, 0x18, 0x28, 0x10, 0x10, 0x28, 0x10, 0x00, 0x00,
   0x1e, 0x42, 0x1e, 0x18, 0x10, 0x42, 0x44, 0x92, 0x18, 0x28, 0x08, 0x10,
   0xfe, 0x10, 0x00, 0x00, 0x02, 0x42, 0x0a, 0x20, 0x10, 0x42, 0x44, 0xaa,
   0x24, 0x10, 0x08, 0x10, 0x10, 0x10, 0x00, 0x00, 0x02, 0x42, 0x0a, 0x40,
   0x10, 0x42, 0x28, 0xaa, 0x24, 0x10, 0x04, 0x10, 0x10, 0x10, 0x00, 0x00,
   0x02, 0x4a, 0x12, 0x42, 0x10, 0x42, 0x28, 0xaa, 0x24, 0x10, 0x04, 0x10,
   0xfe, 0x10, 0x00, 0x00, 0x02, 0x52, 0x12, 0x42, 0x10, 0x42, 0x28, 0xaa,
   0x42, 0x10, 0x02, 0x10, 0x10, 0x10, 0x00, 0x00, 0x02, 0x24, 0x22, 0x24,
   0x10, 0x24, 0x10, 0x44, 0x42, 0x10, 0x02, 0x10, 0x10, 0x10, 0x00, 0x00,
   0x02, 0x58, 0x42, 0x18, 0x10, 0x18, 0x10, 0x44, 0x42, 0x10, 0x7e, 0x10,
   0x10, 0x10, 0x00, 0x7e, 0x00, 0x00, 0x00, 0x00, 0x00, 0x00, 0x00, 0x44,
   0x00, 0x00, 0x00, 0x10, 0x10, 0x10, 0x00, 0x00, 0x00, 0x00, 0x00, 0x00,
   0x00, 0x00, 0x00, 0x00, 0x00, 0x00, 0x00, 0x70, 0x00, 0x1c, 0x00, 0x00,
   0x0c, 0x00, 0x00, 0x00, 0x00, 0x00, 0x00, 0x00, 0x00, 0x00, 0x00, 0x00,
   0x00, 0x00, 0x00, 0x00, 0x30, 0x00, 0x02, 0x00, 0x40, 0x00, 0x10, 0x00,
   0x02, 0x00, 0x00, 0x02, 0x0c, 0x00, 0x00, 0x00, 0x00, 0x00, 0x02, 0x00,
   0x40, 0x00, 0x28, 0x00, 0x02, 0x08, 0x20, 0x02, 0x08, 0x00, 0x00, 0x00,
   0x00, 0x00, 0x02, 0x00, 0x40, 0x00, 0x08, 0x00, 0x02, 0x08, 0x20, 0x02,
   0x08, 0x00, 0x00, 0x00, 0x00, 0x00, 0x02, 0x00, 0x40, 0x00, 0x08, 0x00,
   0x02, 0x00, 0x00, 0x02, 0x08, 0x00, 0x00, 0x00, 0x00, 0x18, 0x1a, 0x18,
   0x58, 0x18, 0x3e, 0x58, 0x1a, 0x00, 0x00, 0x42, 0x08, 0x6a, 0x1a, 0x18,
   0x00, 0x24, 0x26, 0x24, 0x64, 0x24, 0x08, 0x64, 0x26, 0x08, 0x20, 0x22,
   0x08, 0x96, 0x26, 0x24, 0x00, 0x42, 0x42, 0x42, 0x42, 0x42, 0x08, 0x42,
   0x42, 0x08, 0x20, 0x12, 0x08, 0x92, 0x42, 0x42, 0x00, 0x58, 0x42, 0x02,
   0x42, 0x42, 0x08, 0x42, 0x42, 0x08, 0x20, 0x0a, 0x08, 0x92, 0x42, 0x42,
   0x00, 0x64, 0x42, 0x02, 0x42, 0x7e, 0x08, 0x42, 0x42, 0x08, 0x20, 0x06,
   0x08, 0x92, 0x42, 0x42, 0x00, 0x42, 0x42, 0x02, 0x42, 0x02, 0x08, 0x42,
   0x42, 0x08, 0x20, 0x0a, 0x08, 0x92, 0x42, 0x42, 0x00, 0x42, 0x42, 0x42,
   0x42, 0x02, 0x08, 0x64, 0x42, 0x08, 0x20, 0x12, 0x08, 0x92, 0x42, 0x42,
   0x00, 0x64, 0x26, 0x24, 0x64, 0x44, 0x08, 0x58, 0x42, 0x08, 0x20, 0x22,
   0x08, 0x92, 0x42, 0x24, 0x00, 0x58, 0x1a, 0x18, 0x58, 0x38, 0x08, 0x40,
   0x42, 0x08, 0x24, 0x42, 0x08, 0x92, 0x42, 0x18, 0x00, 0x00, 0x00, 0x00,
   0x00, 0x00, 0x00, 0x22, 0x00, 0x00, 0x24, 0x00, 0x00, 0x00, 0x00, 0x00,
   0x00, 0x00, 0x00, 0x00, 0x00, 0x00, 0x00, 0x1c, 0x00, 0x00, 0x18, 0x00,
   0x00, 0x00, 0x00, 0x00, 0x00, 0x00, 0x00, 0x00, 0x00, 0x00, 0x00, 0x00,
   0x00, 0x00, 0x00, 0x60, 0x00, 0x0c, 0x0c, 0x00, 0x00, 0x00, 0x00, 0x00,
   0x00, 0x00, 0x00, 0x00, 0x00, 0x00, 0x00, 0x10, 0x10, 0x10, 0x92, 0x00,
   0x00, 0x00, 0x00, 0x00, 0x00, 0x00, 0x00, 0x00, 0x00, 0x00, 0x00, 0x10,
   0x10, 0x10, 0x60, 0x00, 0x00, 0x00, 0x00, 0x00, 0x08, 0x00, 0x00, 0x00,
   0x00, 0x00, 0x00, 0x10, 0x10, 0x10, 0x00, 0x00, 0x00, 0x00, 0x00, 0x00,
   0x08, 0x00, 0x00, 0x00, 0x00, 0x00, 0x00, 0x10, 0x10, 0x10, 0x00, 0x00,
   0x1a, 0x58, 0x34, 0x18, 0x3e, 0x42, 0x42, 0x82, 0x42, 0x42, 0x7e, 0x10,
   0x10, 0x10, 0x00, 0x00, 0x26, 0x64, 0x4c, 0x24, 0x08, 0x42, 0x42, 0x92,
   0x42, 0x42, 0x40, 0x10, 0x10, 0x10, 0x00, 0x00, 0x42, 0x42, 0x44, 0x42,
   0x08, 0x42, 0x42, 0x92, 0x24, 0x42, 0x20, 0x08, 0x00, 0x20, 0x00, 0x00,
   0x42, 0x42, 0x04, 0x02, 0x08, 0x42, 0x42, 0xaa, 0x18, 0x22, 0x10, 0x08,
   0x00, 0x20, 0x00, 0x00, 0x42, 0x42, 0x04, 0x3c, 0x08, 0x42, 0x24, 0xaa,
   0x18, 0x24, 0x10, 0x10, 0x10, 0x10, 0x00, 0x00, 0x42, 0x42, 0x04, 0x40,
   0x08, 0x42, 0x24, 0xaa, 0x24, 0x24, 0x08, 0x10, 0x10, 0x10, 0x00, 0x00,
   0x26, 0x64, 0x04, 0x42, 0x48, 0x42, 0x24, 0xaa, 0x42, 0x18, 0x04, 0x10,
   0x10, 0x10, 0x00, 0x00, 0x1a, 0x58, 0x04, 0x24, 0x48, 0x64, 0x18, 0x44,
   0x42, 0x10, 0x02, 0x10, 0x10, 0x10, 0x00, 0x00, 0x02, 0x40, 0x04, 0x18,
   0x30, 0x58, 0x18, 0x44, 0x42, 0x08, 0x7e, 0x10, 0x10, 0x10, 0x00, 0x00,
   0x02, 0x40, 0x00, 0x00, 0x00, 0x00, 0x00, 0x00, 0x00, 0x04, 0x00, 0x10,
   0x10, 0x10, 0x00, 0x00, 0x02, 0x40, 0x00, 0x00, 0x00, 0x00, 0x00, 0x00,
   0x00, 0x02, 0x00, 0x60, 0x00, 0x0c, 0x00, 0x00, 0x00, 0x00, 0x78, 0x00,
   0x00, 0x00, 0x00, 0x00, 0x00, 0x00, 0x00, 0x00, 0x00, 0x00, 0x00, 0x00,
   0x00, 0x00, 0x08, 0x00, 0x00, 0x00, 0x00, 0x00, 0x00, 0x00, 0x00, 0x00,
   0x00, 0x00, 0x00, 0x00, 0x00, 0x00, 0x08, 0x00, 0x00, 0x00, 0x10, 0x00,
   0x00, 0x00, 0x00, 0x00, 0x00, 0x00, 0x00, 0x00, 0x00, 0x00, 0x08, 0x00,
   0x00, 0x00, 0x12, 0x00, 0x00, 0x00, 0x00, 0x00, 0x00, 0x00, 0x00, 0x00,
   0x00, 0x00, 0x08, 0x00, 0x00, 0x00, 0x3c, 0x00, 0x00, 0x00, 0x00, 0x00,
   0x00, 0x00, 0x00, 0x00, 0x00, 0x00, 0x08, 0x00, 0x00, 0x00, 0x08, 0x08,
   0x00, 0x18, 0x04, 0x08, 0x40, 0x10, 0x10, 0x00, 0x00, 0x00, 0x08, 0x00,
   0x00, 0x00, 0x18, 0x48, 0x00, 0x20, 0x18, 0x48, 0x22, 0x10, 0x10, 0x00,
   0x00, 0x00, 0x08, 0x20, 0x00, 0x0c, 0xa4, 0x3e, 0x00, 0x00, 0x00, 0x5e,
   0x72, 0x3a, 0x70, 0x00, 0x00, 0x00, 0x08, 0x20, 0x00, 0x0c, 0x62, 0x08,
   0x22, 0x38, 0x3e, 0x08, 0x9c, 0x56, 0x10, 0x3e, 0x00, 0x00, 0x00, 0x20,
   0x00, 0x00, 0x30, 0x18, 0x42, 0x46, 0x10, 0x08, 0x84, 0x56, 0x10, 0x40,
   0x00, 0x00, 0x00, 0x20, 0x00, 0x00, 0x28, 0x2c, 0x42, 0x40, 0x08, 0x3c,
   0x4a, 0x52, 0x38, 0x40, 0x00, 0x00, 0x00, 0x20, 0x00, 0x00, 0x04, 0x5a,
   0x42, 0x40, 0x14, 0x4a, 0x08, 0x32, 0x54, 0x40, 0x00, 0x08, 0x00, 0x20,
   0x00, 0x00, 0x04, 0x4a, 0x0a, 0x20, 0x12, 0x4a, 0x10, 0x18, 0x14, 0x20,
   0x00, 0x14, 0x00, 0x20, 0x02, 0x00, 0x38, 0x24, 0x04, 0x18, 0x72, 0x24,
   0x10, 0x10, 0x08, 0x18, 0x00, 0x14, 0x00, 0x20, 0x04, 0x00, 0x00, 0x00,
   0x00, 0x00, 0x00, 0x00, 0x00, 0x00, 0x00, 0x00, 0x00, 0x08, 0x00, 0x3c,
   0x04, 0x00, 0x00, 0x00, 0x00, 0x00, 0x00, 0x00, 0x00, 0x00, 0x00, 0x00,
   0x00, 0x00, 0x00, 0x00, 0x00, 0x00, 0x00, 0x00, 0x00, 0x00, 0x00, 0x00,
   0x00, 0x00, 0x00, 0x00, 0x00, 0x00, 0x00, 0x00, 0x00, 0x00, 0x00, 0x00,
   0x40, 0x00, 0x00, 0x00, 0x00, 0x00, 0x00, 0x00, 0x00, 0x08, 0x00, 0x18,
   0x08, 0x08, 0x08, 0x14, 0x40, 0x20, 0x00, 0x04, 0x04, 0x40, 0x04, 0x00,
   0x00, 0x68, 0x02, 0x20, 0x30, 0x48, 0x48, 0x08, 0x20, 0x42, 0x00, 0x08,
   0x04, 0x40, 0x44, 0x48, 0x00, 0x1e, 0x02, 0x00, 0x00, 0x9e, 0x88, 0x16,
   0x10, 0x42, 0x7c, 0xd0, 0x04, 0xfe, 0x44, 0x30, 0x00, 0x08, 0x42, 0x38,
   0x7c, 0x88, 0x9e, 0xa0, 0x08, 0xf2, 0x40, 0x3e, 0x04, 0x40, 0xc4, 0x10,
   0x00, 0x08, 0x42, 0x46, 0x40, 0x08, 0xa8, 0x60, 0x04, 0x42, 0x20, 0x40,
   0x04, 0x40, 0x7c, 0x88, 0x7e, 0x38, 0x82, 0x80, 0x20, 0x38, 0xa8, 0x5c,
   0x02, 0x42, 0x00, 0x80, 0x04, 0x70, 0x46, 0x7c, 0x00, 0x4c, 0x82, 0x80,
   0x10, 0x4c, 0x24, 0x80, 0x02, 0x42, 0x00, 0xb8, 0x04, 0x48, 0x44, 0x22,
   0x00, 0xaa, 0x82, 0x80, 0x18, 0x8a, 0x24, 0xf8, 0x04, 0x42, 0x00, 0xc4,
   0x04, 0x48, 0x44, 0x10, 0x00, 0x92, 0x82, 0x80, 0x24, 0x8a, 0x22, 0x04,
   0x08, 0x4a, 0x04, 0x02, 0x04, 0x70, 0x24, 0x08, 0x00, 0x8a, 0x04, 0x40,
   0x24, 0x8a, 0x20, 0x02, 0x10, 0x4a, 0x02, 0x02, 0x84, 0x40, 0x04, 0x08,
   0x00, 0x44, 0x14, 0x40, 0x22, 0x44, 0x14, 0x04, 0x20, 0x44, 0x82, 0x04,
   0x44, 0x20, 0x04, 0x48, 0x00, 0x20, 0x08, 0x20, 0xc2, 0x20, 0x08, 0x38,
   0x40, 0x20, 0x7c, 0x78, 0x38, 0x10, 0x78, 0x30, 0x00, 0x00, 0x00, 0x10,
   0x00, 0x00, 0x00, 0x00, 0x00, 0x10, 0x00, 0x00, 0x00, 0x00, 0x00, 0x00,
   0x00, 0x00, 0x00, 0x00, 0x00, 0x00, 0x00, 0x00, 0x00, 0x00, 0x00, 0x00,
   0x00, 0x00, 0x00, 0x00, 0x00, 0x00, 0x78, 0x20, 0x00, 0x00, 0x00, 0x00,
   0x00, 0x00, 0x00, 0x00, 0x00, 0x00, 0x00, 0x00, 0x00, 0x00, 0x08, 0x20,
   0x00, 0x00, 0x00, 0x00, 0x00, 0x00, 0x00, 0x00, 0x00, 0x00, 0x00, 0x00,
   0x00, 0x00, 0x08, 0x20, 0x00, 0x00, 0x7e, 0x00, 0x00, 0x00, 0x00, 0x00,
   0x00, 0x00, 0x00, 0x00, 0x00, 0x00, 0x08, 0x20, 0x00, 0x00, 0x40, 0x00,
   0x00, 0x00, 0x00, 0x00, 0x00, 0x00, 0x00, 0x00, 0x00, 0x00, 0x08, 0x20,
   0x00, 0x00, 0x40, 0x00, 0x40, 0x10, 0x00, 0x10, 0x08, 0x00, 0x00, 0x00,
   0x00, 0x00, 0x08, 0x20, 0x00, 0x00, 0x40, 0x7e, 0x40, 0x10, 0x7c, 0x10,
   0x08, 0x00, 0x3e, 0x4a, 0x00, 0x00, 0x08, 0x20, 0x00, 0x00, 0x7e, 0x40,
   0x20, 0x7e, 0x10, 0x7e, 0x08, 0x1c, 0x20, 0x4a, 0x00, 0x00, 0x08, 0x20,
   0x00, 0x0c, 0x40, 0x40, 0x20, 0x42, 0x10, 0x10, 0xf8, 0x10, 0x20, 0x4a,
   0x00, 0x00, 0x08, 0x20, 0x00, 0x0c, 0x40, 0x28, 0x10, 0x42, 0x10, 0x18,
   0x8e, 0x10, 0x20, 0x4a, 0x00, 0x00, 0x08, 0x20, 0x00, 0x00, 0x20, 0x18,
   0x18, 0x42, 0x10, 0x18, 0x48, 0x10, 0x3e, 0x40, 0x00, 0x00, 0x08, 0x20,
   0x00, 0x00, 0x20, 0x08, 0x16, 0x40, 0x10, 0x14, 0x28, 0x10, 0x20, 0x40,
   0x00, 0x00, 0x08, 0x20, 0x00, 0x00, 0x10, 0x08, 0x10, 0x20, 0x10, 0x14,
   0x08, 0x10, 0x20, 0x20, 0x00, 0x04, 0x08, 0x20, 0x00, 0x00, 0x10, 0x08,
   0x10, 0x20, 0x10, 0x12, 0x08, 0x10, 0x20, 0x20, 0x00, 0x0a, 0x08, 0x20,
   0x02, 0x00, 0x08, 0x04, 0x10, 0x10, 0xfe, 0x10, 0x08, 0x7e, 0x3e, 0x10,
   0x00, 0x0a, 0x08, 0x20, 0x04, 0x00, 0x04, 0x02, 0x10, 0x0c, 0x00, 0x18,
   0x08, 0x00, 0x00, 0x0c, 0x00, 0x04, 0x08, 0x3c, 0x04, 0x00, 0x00, 0x00,
   0x00, 0x00, 0x00, 0x00, 0x00, 0x00, 0x00, 0x00, 0x00, 0x00, 0x00, 0x00,
   0x00, 0x00, 0x00, 0x00, 0x00, 0x00, 0x00, 0x00, 0x00, 0x00, 0x00, 0x00,
   0x00, 0x00, 0x40, 0x10, 0x00, 0x20, 0x08, 0x08, 0x08, 0x04, 0x00, 0x24,
   0x00, 0x00, 0x04, 0x00, 0x00, 0x7e, 0x40, 0x10, 0x00, 0x20, 0x08, 0x08,
   0x08, 0x04, 0x00, 0x24, 0x06, 0x3e, 0x04, 0x42, 0x00, 0x40, 0x40, 0x7e,
   0x7c, 0x20, 0x08, 0x08, 0x78, 0x04, 0x7e, 0x24, 0x08, 0x20, 0x04, 0x44,
   0x00, 0x40, 0x20, 0x42, 0x10, 0xfe, 0x7e, 0x08, 0x48, 0x7c, 0x40, 0x24,
   0x40, 0x20, 0x7c, 0x44, 0x00, 0x20, 0x20, 0x42, 0x10, 0x20, 0x48, 0x7e,
   0x44, 0x24, 0x40, 0x7e, 0x40, 0x20, 0x46, 0x48, 0x00, 0x28, 0x20, 0x42,
   0x10, 0x30, 0x48, 0x08, 0x44, 0x24, 0x40, 0x24, 0x46, 0x20, 0x24, 0x48,
   0x7e, 0x18, 0x10, 0x42, 0x10, 0x30, 0x48, 0x08, 0x42, 0x22, 0x40, 0x24,
   0x48, 0x10, 0x14, 0x40, 0x00, 0x08, 0x18, 0x40, 0x10, 0x28, 0x48, 0x10,
   0x20, 0x20, 0x40, 0x24, 0x40, 0x10, 0x04, 0x20, 0x00, 0x08, 0x16, 0x20,
   0x10, 0x28, 0x48, 0x10, 0x20, 0x20, 0x40, 0x24, 0x40, 0x10, 0x04, 0x20,
   0x00, 0x08, 0x10, 0x20, 0x10, 0x28, 0x48, 0x7e, 0x10, 0x10, 0x40, 0x20,
   0x20, 0x28, 0x04, 0x10, 0x00, 0x08, 0x10, 0x10, 0x10, 0x24, 0x44, 0x10,
   0x10, 0x10, 0x40, 0x10, 0x20, 0x28, 0x04, 0x10, 0x00, 0x08, 0x10, 0x10,
   0x10, 0x22, 0x44, 0x10, 0x08, 0x08, 0x40, 0x10, 0x10, 0x48, 0x04, 0x08,
   0x00, 0x04, 0x10, 0x08, 0xfe, 0x20, 0x44, 0x10, 0x04, 0x04, 0x7e, 0x08,
   0x08, 0x44, 0x78, 0x04, 0x00, 0x02, 0x10, 0x04, 0x00, 0x30, 0x62, 0x10,
   0x02, 0x02, 0x00, 0x04, 0x06, 0x42, 0x00, 0x02, 0x00, 0x00, 0x00, 0x00,
   0x00, 0x00, 0x00, 0x00, 0x00, 0x00, 0x00, 0x00, 0x00, 0x00, 0x00, 0x00,
   0x00, 0x00, 0x00, 0x00, 0x00, 0x00, 0x00, 0x00, 0x00, 0x00, 0x00, 0x00,
   0x00, 0x00, 0x00, 0x00, 0x08, 0x40, 0x00, 0x00, 0x04, 0x10, 0x00, 0x00,
   0x08, 0x00, 0x00, 0x00, 0x00, 0x00, 0x10, 0x00, 0x08, 0x30, 0x4a, 0x3c,
   0x04, 0x10, 0x00, 0x3e, 0x10, 0x40, 0x20, 0x02, 0x7e, 0x00, 0x10, 0x7e,
   0x78, 0x1e, 0x4a, 0x00, 0x04, 0x10, 0x3c, 0x20, 0x00, 0x40, 0x40, 0x02,
   0x40, 0x08, 0x10, 0x40, 0x48, 0x10, 0x4a, 0x00, 0x04, 0x10, 0x00, 0x20,
   0x7e, 0x40, 0x48, 0x42, 0x40, 0x14, 0xfe, 0x40, 0x44, 0x10, 0x4a, 0x00,
   0x04, 0x7e, 0x00, 0x20, 0x40, 0x40, 0x48, 0x32, 0x40, 0x14, 0x10, 0x40,
   0x4c, 0x10, 0x4a, 0x7e, 0x0c, 0x10, 0x00, 0x24, 0x20, 0x40, 0x48, 0x0e,
   0x40, 0x14, 0x10, 0x40, 0x52, 0x7e, 0x4a, 0x10, 0x34, 0x10, 0x00, 0x28,
   0x20, 0x20, 0x48, 0x02, 0x40, 0x22, 0x54, 0x40, 0x20, 0x10, 0x40, 0x10,
   0x44, 0x10, 0x00, 0x10, 0x10, 0x20, 0x88, 0x02, 0x20, 0x20, 0x54, 0x20,
   0x20, 0x10, 0x20, 0x10, 0x04, 0x10, 0x00, 0x10, 0x38, 0x20, 0x88, 0x02,
   0x20, 0x20, 0x54, 0x22, 0x10, 0x10, 0x20, 0x10, 0x04, 0x10, 0x00, 0x28,
   0x54, 0x10, 0x84, 0x02, 0x10, 0x40, 0x54, 0x14, 0x10, 0x08, 0x10, 0x08,
   0x04, 0x08, 0x00, 0x48, 0x12, 0x10, 0x84, 0x02, 0x10, 0x40, 0x54, 0x08,
   0x08, 0x08, 0x10, 0x08, 0x04, 0x08, 0x00, 0x08, 0x10, 0x08, 0x84, 0x02,
   0x08, 0x40, 0x92, 0x10, 0x04, 0x04, 0x08, 0x04, 0x04, 0x04, 0x7e, 0x04,
   0x10, 0x04, 0x82, 0x7c, 0x04, 0x80, 0x10, 0x20, 0x02, 0x02, 0x04, 0x02,
   0x04, 0x02, 0x00, 0x02, 0x10, 0x02, 0x00, 0x00, 0x02, 0x00, 0x10, 0x20,
   0x00, 0x00, 0x00, 0x00, 0x00, 0x00, 0x00, 0x00, 0x00, 0x00, 0x00, 0x00,
   0x00, 0x00, 0x00, 0x00, 0x00, 0x00, 0x00, 0x00, 0x00, 0x00, 0x00, 0x00,
   0x00, 0x00, 0x00, 0x00, 0x00, 0x00, 0x14, 0x08, 0x06, 0x10, 0x20, 0x00,
   0x08, 0x00, 0x00, 0x00, 0x40, 0x10, 0x02, 0x00, 0x00, 0x00, 0x14, 0x14,
   0x18, 0x10, 0x20, 0x7e, 0x08, 0x3c, 0x7e, 0x3c, 0x42, 0x14, 0x02, 0x00,
   0x7e, 0x00, 0x00, 0x14, 0x20, 0x10, 0x20, 0x08, 0x08, 0x20, 0x40, 0x00,
   0x42, 0x14, 0x02, 0x7e, 0x42, 0x0e, 0x00, 0x08, 0x00, 0x10, 0x20, 0x08,
   0x08, 0x20, 0x40, 0x00, 0x42, 0x14, 0x02, 0x42, 0x42, 0x40, 0x00, 0x00,
   0x00, 0x08, 0x22, 0x08, 0xf8, 0x20, 0x40, 0x00, 0x42, 0x14, 0x02, 0x42,
   0x42, 0x40, 0x00, 0x00, 0x06, 0x08, 0x24, 0x08, 0x8e, 0x20, 0x40, 0x7e,
   0x42, 0x14, 0x42, 0x42, 0x42, 0x40, 0x00, 0x00, 0x18, 0x08, 0x28, 0x7e,
   0x48, 0x20, 0x7c, 0x40, 0x42, 0x14, 0x42, 0x42, 0x42, 0x40, 0x00, 0x00,
   0x20, 0x08, 0x10, 0x08, 0x28, 0x20, 0x40, 0x40, 0x42, 0x14, 0x42, 0x42,
   0x40, 0x40, 0x00, 0x00, 0x00, 0x24, 0x10, 0x08, 0x08, 0x20, 0x40, 0x40,
   0x42, 0x54, 0x22, 0x42, 0x20, 0x40, 0x00, 0x00, 0x00, 0x44, 0x28, 0x08,
   0x08, 0x20, 0x40, 0x20, 0x20, 0x54, 0x22, 0x42, 0x20, 0x20, 0x00, 0x00,
   0x06, 0x44, 0x48, 0x08, 0x08, 0x20, 0x40, 0x20, 0x20, 0x54, 0x12, 0x42,
   0x10, 0x20, 0x00, 0x00, 0x18, 0x74, 0x08, 0x08, 0x08, 0x20, 0x40, 0x10,
   0x10, 0x54, 0x12, 0x42, 0x10, 0x10, 0x00, 0x00, 0x20, 0x4e, 0x04, 0x70,
   0x08, 0xfe, 0x7e, 0x08, 0x08, 0x34, 0x0a, 0x7e, 0x08, 0x08, 0x00, 0x00,
   0x40, 0x40, 0x02, 0x00, 0x08, 0x00, 0x00, 0x04, 0x04, 0x12, 0x06, 0x00,
   0x04, 0x06, 0x00, 0x00, 0x00, 0x00, 0x00, 0x00, 0x00, 0x00, 0x00, 0x00,
   0x00, 0x00, 0x00, 0x00, 0x00, 0x00, 0x00, 0x00, 0x00, 0x00, 0x00, 0x00,
   0x00, 0x00, 0x00, 0x00, 0x00, 0x00, 0x00, 0x00, 0x00, 0x00, 0x00, 0x00,
   0x00, 0x00, 0x00, 0x00, 0x00, 0x00, 0x00, 0x00, 0x00, 0x00, 0x00, 0x00,
   0x00, 0x00, 0x00, 0x00, 0x08, 0x10, 0x00, 0x00, 0x04, 0x04, 0x00, 0x00,
   0x00, 0x00, 0x40, 0x00, 0x08, 0x00, 0x00, 0x10, 0x08, 0x90, 0x00, 0x00,
   0x08, 0x04, 0x02, 0x20, 0x04, 0x00, 0x42, 0x02, 0x30, 0x00, 0x02, 0x10,
   0x28, 0x7e, 0x00, 0xc0, 0x08, 0x4e, 0x04, 0x22, 0x04, 0x38, 0x42, 0x1c,
   0x20, 0x00, 0xfa, 0x7e, 0x1e, 0x08, 0x38, 0x7e, 0x08, 0x84, 0xe4, 0x72,
   0x66, 0x54, 0xc2, 0x08, 0x10, 0x08, 0x42, 0x10, 0x04, 0x08, 0x44, 0x20,
   0x68, 0x84, 0x04, 0x9c, 0x9c, 0x92, 0x72, 0x44, 0x08, 0x14, 0x42, 0x10,
   0x04, 0x04, 0x82, 0x10, 0x18, 0x04, 0x02, 0x94, 0x8c, 0x92, 0x42, 0xc4,
   0x10, 0x14, 0xfa, 0x7e, 0x74, 0x7c, 0x80, 0x08, 0x04, 0x44, 0x02, 0x96,
   0x86, 0x92, 0x42, 0x42, 0xa4, 0x22, 0x42, 0x10, 0x04, 0x82, 0x80, 0x08,
   0x02, 0x42, 0x02, 0x8a, 0x86, 0x92, 0x42, 0x42, 0xa2, 0x22, 0x42, 0x10,
   0x02, 0x80, 0x40, 0x08, 0x02, 0x62, 0x02, 0xca, 0xc6, 0x8a, 0x62, 0x42,
   0xa2, 0x40, 0x62, 0x3c, 0x02, 0x80, 0x20, 0x08, 0x02, 0xd2, 0x02, 0xaa,
   0xa4, 0x8c, 0xd2, 0x42, 0xa2, 0x40, 0xd2, 0x52, 0x0a, 0x40, 0x18, 0x10,
   0x82, 0x50, 0x12, 0xa4, 0xa4, 0x40, 0x52, 0x24, 0xaa, 0x80, 0x52, 0x92,
   0x72, 0x38, 0x00, 0x60, 0x7c, 0x60, 0xe4, 0x40, 0x44, 0x30, 0x64, 0x18,
   0x10, 0x80, 0x64, 0x1c, 0x00, 0x00, 0x00, 0x00, 0x00, 0x00, 0x00, 0x00,
   0x00, 0x00, 0x00, 0x00, 0x00, 0x00, 0x00, 0x00, 0x00, 0x00, 0x00, 0x00,
   0x00, 0x00, 0x00, 0x00, 0x00, 0x00, 0x00, 0x00, 0x00, 0x00, 0x00, 0x00,
   0x00, 0x00, 0x00, 0x00, 0x00, 0x00, 0x00, 0x00, 0x00, 0x00, 0x00, 0x00,
   0x00, 0x00, 0x14, 0x08, 0x00, 0x00, 0x00, 0x00, 0x00, 0x00, 0x00, 0x00,
   0x00, 0x00, 0x00, 0x00, 0x00, 0x00, 0x14, 0x14, 0x00, 0x08, 0x00, 0x10,
   0x30, 0x20, 0x10, 0x38, 0x24, 0x00, 0x04, 0x00, 0x04, 0x10, 0x00, 0x14,
   0x0c, 0x08, 0x20, 0x10, 0x42, 0x20, 0x10, 0x40, 0x52, 0x88, 0x04, 0x88,
   0x04, 0x10, 0x00, 0x08, 0x10, 0x48, 0x22, 0x1c, 0x24, 0x72, 0x10, 0x00,
   0x8a, 0x70, 0x64, 0x70, 0x64, 0x10, 0x00, 0x00, 0x10, 0x9e, 0x72, 0x38,
   0x74, 0xaa, 0x70, 0x04, 0x8a, 0x20, 0x56, 0x20, 0x96, 0x08, 0x00, 0x00,
   0x90, 0x88, 0x9c, 0x08, 0x9c, 0xa6, 0x10, 0x02, 0x8a, 0x10, 0x4c, 0x10,
   0x8c, 0x08, 0x00, 0x00, 0x88, 0x08, 0x94, 0x0e, 0x86, 0xa6, 0x10, 0x02,
   0x8a, 0x38, 0x44, 0x38, 0x84, 0x08, 0x00, 0x00, 0x5c, 0x0c, 0x96, 0x3c,
   0x88, 0xa2, 0x10, 0x7a, 0x84, 0x44, 0x46, 0x44, 0x86, 0x14, 0x00, 0x00,
   0xea, 0x0a, 0x8a, 0x04, 0x48, 0xaa, 0x1c, 0x86, 0x44, 0x82, 0x46, 0x82,
   0x86, 0x14, 0x00, 0x00, 0x4a, 0x0a, 0x8a, 0x84, 0x08, 0x70, 0x32, 0x80,
   0x40, 0x90, 0x46, 0x80, 0x86, 0x14, 0x00, 0x00, 0x4a, 0x8a, 0x4a, 0x84,
   0x10, 0x20, 0x52, 0x80, 0x20, 0xa8, 0x44, 0x80, 0x84, 0xa2, 0x00, 0x00,
   0x44, 0x8c, 0x44, 0x48, 0x10, 0x20, 0x12, 0x40, 0x20, 0x68, 0x44, 0x40,
   0x44, 0xa2, 0x00, 0x00, 0x20, 0x78, 0x30, 0x30, 0x10, 0x18, 0x0c, 0x30,
   0x18, 0x30, 0x84, 0x30, 0x24, 0x42, 0x00, 0x00, 0x00, 0x00, 0x00, 0x00,
   0x00, 0x00, 0x00, 0x00, 0x00, 0x00, 0x00, 0x00, 0x00, 0x00, 0x00, 0x00,
   0x00, 0x00, 0x00, 0x00, 0x00, 0x00, 0x00, 0x00, 0x00, 0x00, 0x00, 0x00,
   0x00, 0x00, 0x00, 0x00 };
