/* XPM */
static const char * VeySicK_xpm[] = {
"80 80 226 2",
"  	c None",
". 	c #00003D",
"+ 	c #000088",
"@ 	c #0000B6",
"# 	c #0000FF",
"$ 	c #6565FF",
"% 	c #6A6AFF",
"& 	c #6969FF",
"* 	c #0303FF",
"= 	c #4A4AFF",
"- 	c #1515FF",
"; 	c #B9B9FF",
"> 	c #FFFFFF",
", 	c #4747FF",
"' 	c #EBEBFF",
") 	c #EEEEFF",
"! 	c #0505FF",
"~ 	c #5D5DFF",
"{ 	c #9F9FFF",
"] 	c #4444FF",
"^ 	c #9999FF",
"/ 	c #0B0BFF",
"( 	c #F4F4FF",
"_ 	c #EFEFFF",
": 	c #0606FF",
"< 	c #3E3EFF",
"[ 	c #A6A6FF",
"} 	c #4E4EFF",
"| 	c #0202FF",
"1 	c #E9E9FF",
"2 	c #E0E0FF",
"3 	c #0101FF",
"4 	c #4B4BFF",
"5 	c #4242FF",
"6 	c #8888FF",
"7 	c #0404FF",
"8 	c #EAEAFF",
"9 	c #F2F2FF",
"0 	c #0909FF",
"a 	c #9696FF",
"b 	c #2A2AFF",
"c 	c #2F2FFF",
"d 	c #6262FF",
"e 	c #6D6DFF",
"f 	c #5454FF",
"g 	c #1616FF",
"h 	c #0F0FFF",
"i 	c #1919FF",
"j 	c #9494FF",
"k 	c #5555FF",
"l 	c #E7E7FF",
"m 	c #D0D0FF",
"n 	c #8E8EFF",
"o 	c #F7F7FF",
"p 	c #FDFDFF",
"q 	c #B8B8FF",
"r 	c #3030FF",
"s 	c #3B3BFF",
"t 	c #4D4DFF",
"u 	c #3838FF",
"v 	c #ADADFF",
"w 	c #3F3FFF",
"x 	c #7575FF",
"y 	c #2626FF",
"z 	c #CFCFFF",
"A 	c #F8F8FF",
"B 	c #1111FF",
"C 	c #9393FF",
"D 	c #A2A2FF",
"E 	c #D9D9FF",
"F 	c #DBDBFF",
"G 	c #F6F6FF",
"H 	c #0C0CFF",
"I 	c #1A1AFF",
"J 	c #1313FF",
"K 	c #E1E1FF",
"L 	c #FCFCFF",
"M 	c #F1F1FF",
"N 	c #FAFAFF",
"O 	c #A8A8FF",
"P 	c #E6E6FF",
"Q 	c #7E7EFF",
"R 	c #8282FF",
"S 	c #5C5CFF",
"T 	c #E5E5FF",
"U 	c #BDBDFF",
"V 	c #7676FF",
"W 	c #0A0AFF",
"X 	c #3636FF",
"Y 	c #D6D6FF",
"Z 	c #C7C7FF",
"` 	c #4040FF",
" .	c #FEFEFF",
"..	c #1F1FFF",
"+.	c #2525FF",
"@.	c #B4B4FF",
"#.	c #3C3CFF",
"$.	c #1010FF",
"%.	c #F5F5FF",
"&.	c #8989FF",
"*.	c #E3E3FF",
"=.	c #9797FF",
"-.	c #9E9EFF",
";.	c #C1C1FF",
">.	c #CACAFF",
",.	c #F9F9FF",
"'.	c #9191FF",
").	c #0E0EFF",
"!.	c #4F4FFF",
"~.	c #1D1DFF",
"{.	c #BBBBFF",
"].	c #7D7DFF",
"^.	c #8686FF",
"/.	c #EDEDFF",
"(.	c #6363FF",
"_.	c #7070FF",
":.	c #ABABFF",
"<.	c #8484FF",
"[.	c #FBFBFF",
"}.	c #3A3AFF",
"|.	c #ACACFF",
"1.	c #2424FF",
"2.	c #4545FF",
"3.	c #3939FF",
"4.	c #9B9BFF",
"5.	c #C3C3FF",
"6.	c #9C9CFF",
"7.	c #D1D1FF",
"8.	c #6B6BFF",
"9.	c #9898FF",
"0.	c #8383FF",
"a.	c #7B7BFF",
"b.	c #F3F3FF",
"c.	c #4949FF",
"d.	c #4343FF",
"e.	c #E8E8FF",
"f.	c #3D3DFF",
"g.	c #5F5FFF",
"h.	c #0808FF",
"i.	c #A0A0FF",
"j.	c #9090FF",
"k.	c #A5A5FF",
"l.	c #DFDFFF",
"m.	c #3131FF",
"n.	c #B1B1FF",
"o.	c #9595FF",
"p.	c #1212FF",
"q.	c #F0F0FF",
"r.	c #8787FF",
"s.	c #C2C2FF",
"t.	c #2222FF",
"u.	c #8585FF",
"v.	c #DCDCFF",
"w.	c #D3D3FF",
"x.	c #2929FF",
"y.	c #4848FF",
"z.	c #7C7CFF",
"A.	c #7777FF",
"B.	c #2C2CFF",
"C.	c #3737FF",
"D.	c #7474FF",
"E.	c #7A7AFF",
"F.	c #D5D5FF",
"G.	c #1717FF",
"H.	c #CCCCFF",
"I.	c #BEBEFF",
"J.	c #4C4CFF",
"K.	c #5959FF",
"L.	c #2B2BFF",
"M.	c #AEAEFF",
"N.	c #5858FF",
"O.	c #D7D7FF",
"P.	c #1818FF",
"Q.	c #8D8DFF",
"R.	c #C4C4FF",
"S.	c #5E5EFF",
"T.	c #AAAAFF",
"U.	c #9D9DFF",
"V.	c #A7A7FF",
"W.	c #2121FF",
"X.	c #6060FF",
"Y.	c #DEDEFF",
"Z.	c #7272FF",
"`.	c #6666FF",
" +	c #0707FF",
".+	c #7979FF",
"++	c #8B8BFF",
"@+	c #3535FF",
"#+	c #D2D2FF",
"$+	c #2828FF",
"%+	c #5A5AFF",
"&+	c #5353FF",
"*+	c #8181FF",
"=+	c #A3A3FF",
"-+	c #B3B3FF",
";+	c #7F7FFF",
">+	c #8A8AFF",
",+	c #CECEFF",
"'+	c #5252FF",
")+	c #9292FF",
"!+	c #2D2DFF",
"~+	c #B6B6FF",
"{+	c #1E1EFF",
"]+	c #1B1BFF",
"^+	c #6161FF",
"/+	c #7878FF",
"(+	c #6868FF",
"_+	c #B0B0FF",
":+	c #5757FF",
"<+	c #1414FF",
"[+	c #5050FF",
"}+	c #DADAFF",
"|+	c #AFAFFF",
"1+	c #2020FF",
"2+	c #9A9AFF",
"3+	c #B2B2FF",
"4+	c #5656FF",
"5+	c #5151FF",
"6+	c #4646FF",
"7+	c #6464FF",
"8+	c #4141FF",
"9+	c #C6C6FF",
"0+	c #C9C9FF",
"a+	c #8F8FFF",
"b+	c #A1A1FF",
"c+	c #D4D4FF",
"  . . . . . . . . . . . . . . . . . . . . . . . . . . . . . . . . . . . . . . . . . . . . . . . . . . . . . . . . . . . . . . . . . . . . . . . . . . . . . .   ",
". . . . . . . . . . . . . . . . . . . . . . . . . . . . . . . . . . . . . . . . . . . . . . . . . . . . . . . . . . . . . . . . . . . . . . . . . . . . . . . . ",
". . . . . . . . . . . . . . . . . . . . . . . . . . . . . . . . . . . . . . . . . . . . . . . . . . . . . . . . . . . . . . . . . . . . . . . . . . . . . . . . ",
". . . + @ @ @ @ @ @ @ @ @ @ @ @ @ @ @ @ @ @ @ @ @ @ @ @ @ @ @ @ @ @ @ @ @ @ @ @ @ @ @ @ @ @ @ @ @ @ @ @ @ @ @ @ @ @ @ @ @ @ @ @ @ @ @ @ @ @ @ @ @ @ @ @ + . . . ",
". . . @ # # # # # # # # # # # # # # # # # # # # # # # # # # # # # # # # # # # # # # # # # # # # # # # # # # # # # # # # # # # # # # # # # # # # # # # # @ . . . ",
". . . @ # # # # # # # # # # # # # # # # # # # # # # # # # # # # # # # # # # # # # # # # # # # # # # # # # # # # # # # # # # # # # # # # # # # # # # # # @ . . . ",
". . . @ # # # # # # # # # # # # # # # # # # # # # # # # # # # # # # # # # # # # # # # # # # # # # # # # # # # # # # # # # # # # # # # # # # # # # # # # @ . . . ",
". . . @ # # # # # # # # # # # # # # # # # # # # # # # # # # # # # # # # # # # # # # # # # # # # # # # # # # # # # # # # # # # # # # # # # # # # # # # # @ . . . ",
". . . @ # # # # # # # # # # # # # # # # # # # # # # # # # # # # # # # # # # # # # # # # # # # # # # # # # # # # # # # # # # # # # # # # # # # # # # # # @ . . . ",
". . . @ # # # # # # # # # # # # # # # # # # # # # # # # # # # # # # # # # # # # # # # # # # # # # # # # # # # # # # # # # # # # # # # # # # # # # # # # @ . . . ",
". . . @ # # # # # # # # # # # # # # # # # # # # # # # # # # # # # # # # # # # # # # # # # # # # # # # # # # # # # # # # # # # # # # # # # # # # # # # # @ . . . ",
". . . @ # # # # # # # $ % % % & * # # # # # # # # # # = % % % % - # # # # # # # # # # # # # # # # # # # # # # # # # # # # # # # # # # # # # # # # # # # @ . . . ",
". . . @ # # # # # # # ; > > > > , # # # # # # # # # * ' > > > ) ! # # # # # # # # # # # # # # # # # # # # # # # # # # # # # # # # # # # # # # # # # # # @ . . . ",
". . . @ # # # # # # # ~ > > > > { # # # # # # # # # ] > > > > ^ # # # # # # # # # # # # # # # # # # # # # # # # # # # # # # # # # # # # # # # # # # # # @ . . . ",
". . . @ # # # # # # # / ( > > > _ : # # # # # # # # ^ > > > > < # # # # # # # # # # # # # # # # # # # # # # # # # # # # # # # # # # # # # # # # # # # # @ . . . ",
". . . @ # # # # # # # # [ > > > > } # # # # # # # | 1 > > > 2 3 # # # # # # # # # # # # # # # # # # # # # # # # # # # # # # # # # # # # # # # # # # # # @ . . . ",
". . . @ # # # # # # # # 4 > > > > [ # # # # # # # 5 > > > > 6 # # # # # # # # # # # # # # # # # # # # # # # # # # # # # # # # # # # # # # # # # # # # # @ . . . ",
". . . @ # # # # # # # # 7 8 > > > 9 0 # # # # # # a > > > > b # # # # # # # 7 c d e f g # # # # # # h i i i i # # # # # # # | i i i i 0 # # # # # # # # @ . . . ",
". . . @ # # # # # # # # # j > > > > k # # # # # | l > > > m # # # # # # : n o > > > > p q r # # # # % > > > > s # # # # # # t > > > > u # # # # # # # # @ . . . ",
". . . @ # # # # # # # # # u > > > > v # # # # # w > > > > x # # # # # y z > > > > > > > > A f # # # B o > > > C # # # # # # D > > > E # # # # # # # # # @ . . . ",
". . . @ # # # # # # # # # # F > > > G H # # # # C > > > p I # # # # J K > > > > L M > > > > N r # # # O > > > P | # # # # ! _ > > > Q # # # # # # # # # @ . . . ",
". . . @ # # # # # # # # # # R > > > > S # # # 3 T > > > U # # # # # ^ > > > N V W # X Y > > > Z # # # , > > > > ` # # # # = > > >  ...# # # # # # # # # @ . . . ",
". . . @ # # # # # # # # # # +.> > > > @.# # # #.> > > > d # # # # $.%.> > > &.# # # # y N > > > r # # | *.> > > =.# # # # -.> > > ;.# # # # # # # # # # @ . . . ",
". . . @ # # # # # # # # # # # >.> > > ,.B # # '.> > > G ).# # # # !.> > > > ~.# # # # # {.> > > ].# # # ^.> > > 1 * # # 7 /.> > > (.# # # # # # # # # # @ . . . ",
". . . @ # # # # # # # # # # # _.> > > > (.# 3 *.> > > :.# # # # # <.> > > [.s }.}.}.}.}.|.> > > :.# # # 1. .> > > 2.# # , > > > G ).# # # # # # # # # # @ . . . ",
". . . @ # # # # # # # # # # # g [.> > > {.# 3.> > > > !.# # # # # 4.> > > > > > > > > > > > > > >.# # # # 5.> > > 6.# # 4.> > > O # # # # # # # # # # # @ . . . ",
". . . @ # # # # # # # # # # # # q > > > [.g n > > > /.! # # # # # D > > > > > > > > > > > > > > 7.# # # # d > > > /.7 * ' > > > = # # # # # # # # # # # @ . . . ",
". . . @ # # # # # # # # # # # # S > > > > 8.2 > > > 9.# # # # # # 0.> > > M a.a.a.a.a.a.a.a.a.a.$ # # # # / b.> > > c.d.> > > e.* # # # # # # # # # # # @ . . . ",
". . . @ # # # # # # # # # # # # W ( > > > T > > > > f.# # # # # # g.> > > L h.# # # # # # # # # # # # # # # i.> > > i.9.> > > j.# # # # # # # # # # # # @ . . . ",
". . . @ # # # # # # # # # # # # # k.> > > > > > > l.# # # # # # # m.> > > > f # # # # W n.o.8.` p.# # # # # w > > > q.1 > > > m.# # # # # # # # # # # # @ . . . ",
". . . @ # # # # # # # # # # # # # = > > > > > > > r.# # # # # # # # s.> > > 2 t.# # # u.> > > > k # # # # # # v.> > > > > > w.# # # # # # # # # # # # # @ . . . ",
". . . @ # # # # # # # # # # # # # * 1 > > > > > > x.# # # # # # # # y.> > > > 9 4.z.;.p > > > m 3 # # # # # # Q > > > > > > A.# # # # # # # # # # # # # @ . . . ",
". . . @ # # # # # # # # # # # # # # C > > > > > z # # # # # # # # # # a > > > > > > > > > > ' B.# # # # # # # ~.p > > > > L I # # # # # # # # # # # # # @ . . . ",
". . . @ # # # # # # # # # # # # # # C.> > > > > D.# # # # # # # # # # 3 E.( > > > > > > > F.B.# # # # # # # # # {.> > > > {.# # # # # # # # # # # # # # @ . . . ",
". . . @ # # # # # # # # # # # # # # # a.0.0.0.0.G.# # # # # # # # # # # # i e n.H.E I.-.J.3 # # # # # # # # # # _.> > > > S # # # # # # # # # # # # # # @ . . . ",
". . . @ # # # # # # # # # # # # # # # # # # # # # # # # # # # # # # # # # # # # # # # # # # # # # # # # # # # # >.> > > 9 W # # # # # # # # # # # # # # @ . . . ",
". . . @ # # # # # # # # # # # # # # # # # # # # # # # # # # # # # # # # # # # # # # # # # # # # # # # # # # # 4 > > > > -.# # # # # # # # # # # # # # # @ . . . ",
". . . @ # # # # # # # # # # # # # # # # # # # # # # # # # # # # # # # # # # # # # # # # # # # # # # # < K.!.r.G > > >  .L.# # # # # # # # # # # # # # # @ . . . ",
". . . @ # # # # # # # # # # # # # # # # # # # # # # # # # # # # # # # # # # # # # # # # # # # # # # # A.> > > > > > > M.# # # # # # # # # # # # # # # # @ . . . ",
". . . @ # # # # # # # # # # # # # # # # # # # # # # # # # # # # # # # # # # # # # # # # # # # # # # # N.> > > > > > O.P.# # # # # # # # # # # # # # # # @ . . . ",
". . . @ # # # # # # # # # # # # # # # # # # # # # # # # # # # # # # # # # # # # # # # # # # # # # # # 3.> > > > q.Q.- # # # # # # # # # # # # # # # # # @ . . . ",
". . . @ # # # # # # # # # # # # # # # # # # # # # # # # # # # # # # # # # # # # # # # # # # # # # # # # / x.u I 3 # # # # # # # # # # # # # # # # # # # @ . . . ",
". . . @ # # # # # # # # # # # # # # # # # # # # # # # # # # # # # # # # # # # # # # # # # # # # # # # # # # # # # # # # # # # # # # # # # # # # # # # # @ . . . ",
". . . @ # # # # # # # # # # # # # # # # # # # # # # # # # # # # # # # # # # # # # # # # # # # # # # # # # # # # # # # # # # # # # # # # # # # # # # # # @ . . . ",
". . . @ # # # # # # # # # | W # # # # # # # # # # # # # # # # # # # # # # # # # # # # # # # # # # # # # # # # # # # # # # # # # # # # # # # # # # # # # @ . . . ",
". . . @ # # # # # 1.].R.1 L > [.K |.S.h.# # # # # # # J.T.T.T.-.# # # # # # # # # # # # # # # # # # # # # # A.T.T.T.-.# # # # # # # # H U.T.T.T.T.V.W.# @ . . . ",
". . . @ # # # ! Q.,.> > > > > > > > > P 4 # # # # # # x > > > _ # # # # # # # # # # # # # # # # # # # # # # @.> > > _ # # # # # # # : I.> > > >  .d # # @ . . . ",
". . . @ # # 3 V.> > > > > > > > > > > > N }.# # # # # x > > > _ # # # # # # # # # # # # # # # # # # # # # # @.> > > _ # # # # # # * M.> > > > > % # # # @ . . . ",
". . . @ # # X.> > > > > ,.Y.w._ > > > > > K p.# # # # x > > > _ # # # # # # # # # # # # # # # # # # # # # # @.> > > _ # # # # # # U.> > > > > Z.# # # # @ . . . ",
". . . @ # # w.> > > G `. +# # # y.*.> > > > .+# # # # r % % % d # # # # # # # # # # # # # # # # # # # # # # @.> > > _ # # # # # ++> > > > > E.# # # # # @ . . . ",
". . . @ #  + .> > > n # # # # # # @+> > > > n.# # # # # # # # # # # # # # # # # # # # # # # # # # # # # # # @.> > > _ # # # # A.> > > > > R # # # # # # @ . . . ",
". . . @ # g > > > > 0.# # # # # # # #+> p 9 m # # # # $+%+%+%+&+# # # # # # # # < *+=+-+6.;+] # # # # # # # @.> > > _ # # # (.> > > > > >+# # # # # # # @ . . . ",
". . . @ # # l > > > q.t # # # # # # ).W # # # # # # # x > > > _ # # # # # # C.,+> > > > > > > H.s # # # # # @.> > > _ # # '+L > > > > )+# # # # # # # # @ . . . ",
". . . @ # # -+> > > > > w.>+d.: # # # # # # # # # # # x > > > _ # # # # # } o > > > > > > > > > 9 C.# # # # @.> > > _ # d.A > > > > ^ # # # # # # # # # @ . . . ",
". . . @ # # !+%.> > > > > > > ( ~+_.{+# # # # # # # # x > > > _ # # # # W.M > > > > 9 7.N > > > > 8 0 # # # @.> > > _ @+9 > > > > N ]+# # # # # # # # # @ . . . ",
". . . @ # # # ^+> > > > > > > > > > L @.C.# # # # # # x > > > _ # # # # D > > > L /+| # B <.> > > > (+# # # @.> > > o ' > > > > > > _+# # # # # # # # # @ . . . ",
". . . @ # # # # 2.E > > > > > > > > > > [.V # # # # # x > > > _ # # # $.N > > > =+# # # # 7 v.> ,.7.;+# # # @.> > > > > > > > > > > > :+# # # # # # # # @ . . . ",
". . . @ # # # # # : K.v %.> > > > > > > > > d # # # # x > > > _ # # # 4 > > > > s # # # # # L.!+7 # # # # # @.> > > > > > > z > > > > 8 <+# # # # # # # @ . . . ",
". . . @ # # # # # # # # W [+o.}+> > > > > > q.W # # # x > > > _ # # # V > > > > G.# # # # # # # # # # # # # @.> > > > > > |+7 U > > > > k.# # # # # # # @ . . . ",
". . . @ # # # # # # # # # # # # 1+2+p > > > > g.# # # x > > > _ # # # ++> > > L 3 # # # # # # # # # # # # # @.> > > > > 3+! # L.[.> > > > J.# # # # # # @ . . . ",
". . . @ # s 4+_.&.d # # # # # # # # (.> > > > >+# # # x > > > _ # # # &.> > > > / # # # # # # # # # # # # # @.> > > > ~+: # # # )+> > > > *.).# # # # # @ . . . ",
". . . @ # E > > > *.# # # # # # # # h > > > > { # # # x > > > _ # # # D.> > > > +.# # # # # : : # # # # # # @.> > > 9  +# # # # $.8 > > > > ^ # # # # # @ . . . ",
". . . @ # k.> > > > 5+# # # # # # # X > > > > ^.# # # x > > > _ # # # 6+> > > > S.# # # # # `.N F.T.Q 7 # # @.> > > _ # # # # # # 7+> > > >  .8+# # # # @ . . . ",
". . . @ # '+> > > > /.L.# # # # # $.m > > > > k # # # x > > > _ # # # / o > > > #+* # # # 3 9+> > > 0+# # # @.> > > _ # # # # # # 3 H.> > > > v.0 # # # @ . . . ",
". . . @ # : F > > > > N 4.7+= ^+a+q.> > > > *.! # # # x > > > _ # # # # 6.> > > > I.!+7 ` V.> > > > `.# # # @.> > > _ # # # # # # # 3. .> > > > a+# # # @ . . . ",
". . . @ # # d.[.> > > > > > > > > > > > >  .4+# # # # x > > > _ # # # # ]+1 > > > > > L > > > > > F./ # # # @.> > > _ # # # # # # # # b+> > > > L u # # @ . . . ",
". . . @ # # # %+o > > > > > > > > > > > p D.# # # # # x > > > _ # # # # # s _ > > > > > > > > > ' W.# # # # @.> > > _ # # # # # # # # P.9 > > > > c+: # @ . . . ",
". . . @ # # # # b @.L > > > > > > >  .5.@+# # # # # # x > > > _ # # # # # # x.{.> > > > > > p [ +.# # # # # @.> > > _ # # # # # # # # # x > > > > > 0.# @ . . . ",
". . . @ # # # # # # I :+6 2+k.o.*+S g # # # # # # # # ~.5 5 5 f.# # # # # # # # $+8.Q.2+;+S +.# # # # # # # !+5 5 5 f.# # # # # # # # # ! 5 5 5 5 5 #.# @ . . . ",
". . . @ # # # # # # # # # # # # # # # # # # # # # # # # # # # # # # # # # # # # # # # # # # # # # # # # # # # # # # # # # # # # # # # # # # # # # # # # @ . . . ",
". . . @ # # # # # # # # # # # # # # # # # # # # # # # # # # # # # # # # # # # # # # # # # # # # # # # # # # # # # # # # # # # # # # # # # # # # # # # # @ . . . ",
". . . @ # # # # # # # # # # # # # # # # # # # # # # # # # # # # # # # # # # # # # # # # # # # # # # # # # # # # # # # # # # # # # # # # # # # # # # # # @ . . . ",
". . . @ # # # # # # # # # # # # # # # # # # # # # # # # # # # # # # # # # # # # # # # # # # # # # # # # # # # # # # # # # # # # # # # # # # # # # # # # @ . . . ",
". . . @ # # # # # # # # # # # # # # # # # # # # # # # # # # # # # # # # # # # # # # # # # # # # # # # # # # # # # # # # # # # # # # # # # # # # # # # # @ . . . ",
". . . @ # # # # # # # # # # # # # # # # # # # # # # # # # # # # # # # # # # # # # # # # # # # # # # # # # # # # # # # # # # # # # # # # # # # # # # # # @ . . . ",
". . . @ # # # # # # # # # # # # # # # # # # # # # # # # # # # # # # # # # # # # # # # # # # # # # # # # # # # # # # # # # # # # # # # # # # # # # # # # @ . . . ",
". . . + @ @ @ @ @ @ @ @ @ @ @ @ @ @ @ @ @ @ @ @ @ @ @ @ @ @ @ @ @ @ @ @ @ @ @ @ @ @ @ @ @ @ @ @ @ @ @ @ @ @ @ @ @ @ @ @ @ @ @ @ @ @ @ @ @ @ @ @ @ @ @ @ + . . . ",
". . . . . . . . . . . . . . . . . . . . . . . . . . . . . . . . . . . . . . . . . . . . . . . . . . . . . . . . . . . . . . . . . . . . . . . . . . . . . . . . ",
". . . . . . . . . . . . . . . . . . . . . . . . . . . . . . . . . . . . . . . . . . . . . . . . . . . . . . . . . . . . . . . . . . . . . . . . . . . . . . . . ",
"  . . . . . . . . . . . . . . . . . . . . . . . . . . . . . . . . . . . . . . . . . . . . . . . . . . . . . . . . . . . . . . . . . . . . . . . . . . . . . .   "};
